<?xml version="1.0" encoding="UTF-8"?>
<svg xmlns="http://www.w3.org/2000/svg" xmlns:xlink="http://www.w3.org/1999/xlink" width="167.941pt" height="222.625pt" viewBox="0 0 167.941 222.625">
<defs>
<g>
<g id="glyph-0-0">
<path d="M 1.796875 0 C 3.828125 0 6.5 -1.421875 6.5 -3.578125 C 6.5 -4.421875 6.046875 -4.84375 5.578125 -5.078125 C 4.890625 -5.4375 4.125 -5.4375 3.390625 -5.4375 C 2.640625 -5.4375 2.03125 -5.4375 1.28125 -5.078125 C 0.296875 -4.609375 0.171875 -4 0.171875 -3.9375 C 0.171875 -3.890625 0.21875 -3.875 0.265625 -3.875 C 0.4375 -3.875 0.8125 -4.078125 0.875 -4.265625 C 0.984375 -4.59375 1.09375 -4.921875 2.328125 -4.984375 C 2.25 -3.9375 2.09375 -2.53125 1.25 -0.453125 C 0.921875 -0.328125 0.734375 -0.15625 0.734375 -0.0625 C 0.734375 0 0.8125 0 0.9375 0 Z M 1.828125 -0.46875 C 2.453125 -1.921875 2.84375 -3.296875 3.015625 -4.984375 C 3.65625 -4.984375 5.796875 -4.984375 5.796875 -3.234375 C 5.796875 -1.546875 4.203125 -0.46875 2.3125 -0.46875 Z M 1.828125 -0.46875 "/>
</g>
<g id="glyph-0-1">
<path d="M 2.96875 -3.15625 C 2.828125 -3.15625 2.75 -3.15625 2.625 -3.078125 C 2.546875 -3.03125 2.4375 -2.953125 2.4375 -2.859375 C 2.4375 -2.78125 2.5 -2.78125 2.625 -2.78125 L 3.421875 -2.78125 C 2.515625 -1.9375 1.5625 -1.125 0.609375 -0.359375 C 0.484375 -0.265625 0.3125 -0.125 0.3125 -0.0625 C 0.3125 -0.015625 0.34375 0 0.390625 0 C 0.484375 0 0.640625 -0.078125 0.71875 -0.109375 C 0.875 -0.203125 1.046875 -0.21875 1.234375 -0.21875 C 1.46875 -0.21875 1.984375 -0.171875 2.5 -0.125 C 2.796875 -0.078125 3.484375 0 3.953125 0 C 4.46875 0 4.921875 -0.234375 5.296875 -0.546875 C 5.84375 -1.015625 5.953125 -1.578125 5.953125 -1.609375 C 5.953125 -1.671875 5.90625 -1.671875 5.875 -1.671875 C 5.796875 -1.671875 5.65625 -1.625 5.453125 -1.484375 C 5.21875 -1.34375 5.203125 -1.28125 5.140625 -1.140625 C 5.078125 -0.90625 4.984375 -0.75 4.90625 -0.65625 C 4.796875 -0.515625 4.78125 -0.5 4.59375 -0.5 C 4.21875 -0.5 3.4375 -0.59375 3.296875 -0.609375 C 3.140625 -0.625 2.375 -0.71875 1.875 -0.71875 C 1.75 -0.71875 1.625 -0.71875 1.46875 -0.6875 C 2.640625 -1.65625 3.609375 -2.5 3.890625 -2.78125 C 4.0625 -2.765625 4.359375 -2.765625 4.453125 -2.703125 C 4.46875 -2.6875 4.46875 -2.65625 4.484375 -2.640625 C 4.484375 -2.5625 4.5625 -2.5625 4.59375 -2.5625 C 4.734375 -2.5625 5.015625 -2.71875 5.015625 -2.90625 C 5.015625 -3.125 4.59375 -3.140625 4.46875 -3.140625 C 4.453125 -3.140625 4.3125 -3.15625 4.3125 -3.15625 C 4.3125 -3.171875 4.453125 -3.296875 4.46875 -3.3125 C 5.203125 -4 6.421875 -5.296875 6.421875 -5.390625 C 6.421875 -5.4375 6.359375 -5.4375 6.328125 -5.4375 C 6.234375 -5.4375 6.0625 -5.375 5.90625 -5.265625 C 5.84375 -5.234375 5.828125 -5.234375 5.734375 -5.234375 C 5.53125 -5.234375 5.1875 -5.28125 4.96875 -5.3125 C 4.375 -5.40625 4.125 -5.4375 3.828125 -5.4375 C 3.375 -5.4375 2.859375 -5.328125 2.28125 -4.96875 C 1.625 -4.53125 1.546875 -4.09375 1.546875 -4.0625 C 1.546875 -4.015625 1.609375 -4.015625 1.640625 -4.015625 C 1.796875 -4.015625 2.265625 -4.234375 2.34375 -4.46875 C 2.4375 -4.71875 2.5 -4.9375 3.203125 -4.9375 C 3.421875 -4.9375 3.734375 -4.90625 3.984375 -4.859375 C 4.53125 -4.765625 4.828125 -4.71875 5.09375 -4.71875 C 5.15625 -4.71875 5.28125 -4.71875 5.375 -4.75 L 4.203125 -3.53125 C 4.078125 -3.40625 3.90625 -3.234375 3.828125 -3.15625 Z M 2.96875 -3.15625 "/>
</g>
<g id="glyph-0-2">
<path d="M 1.359375 -5.671875 C 1.359375 -5.796875 1.359375 -5.96875 1.171875 -5.96875 C 0.984375 -5.96875 0.984375 -5.796875 0.984375 -5.671875 L 0.984375 1.6875 C 0.984375 1.8125 0.984375 1.984375 1.171875 1.984375 C 1.359375 1.984375 1.359375 1.8125 1.359375 1.6875 Z M 1.359375 -5.671875 "/>
</g>
<g id="glyph-0-3">
<path d="M 6.109375 -2.71875 C 6.109375 -2.96875 6.015625 -3 5.96875 -3 C 5.859375 -3 5.84375 -2.8125 5.84375 -2.6875 C 5.8125 -2.109375 5.390625 -1.484375 4.6875 -1.484375 C 4.21875 -1.484375 3.828125 -1.765625 3.359375 -2.203125 C 2.859375 -2.671875 2.4375 -3.015625 1.875 -3.015625 C 0.96875 -3.015625 0.46875 -2.0625 0.46875 -1.28125 C 0.46875 -1 0.5625 -0.984375 0.59375 -0.984375 C 0.65625 -0.984375 0.71875 -1.03125 0.71875 -1.234375 C 0.75 -2.015625 1.296875 -2.5 1.875 -2.5 C 2.359375 -2.5 2.734375 -2.21875 3.21875 -1.78125 C 3.71875 -1.3125 4.140625 -0.96875 4.6875 -0.96875 C 5.59375 -0.96875 6.109375 -1.90625 6.109375 -2.71875 Z M 6.109375 -2.71875 "/>
</g>
<g id="glyph-0-4">
<path d="M 2.421875 -4.828125 C 2.421875 -5.03125 2.421875 -5.234375 2.6875 -5.484375 C 2.75 -5.515625 2.984375 -5.71875 3.46875 -5.75 C 3.5625 -5.765625 3.640625 -5.765625 3.640625 -5.859375 C 3.640625 -5.96875 3.546875 -5.96875 3.4375 -5.96875 C 2.578125 -5.96875 1.828125 -5.578125 1.8125 -4.96875 L 1.8125 -2.9375 C 1.796875 -2.53125 1.40625 -2.140625 0.75 -2.109375 C 0.65625 -2.09375 0.59375 -2.09375 0.59375 -1.984375 C 0.59375 -1.890625 0.65625 -1.890625 0.71875 -1.875 C 1.484375 -1.828125 1.734375 -1.421875 1.796875 -1.203125 C 1.8125 -1.109375 1.8125 -1.09375 1.8125 -0.796875 L 1.8125 0.828125 C 1.8125 1.078125 1.8125 1.4375 2.328125 1.734375 C 2.671875 1.921875 3.15625 1.984375 3.4375 1.984375 C 3.546875 1.984375 3.640625 1.984375 3.640625 1.875 C 3.640625 1.78125 3.5625 1.78125 3.5 1.765625 C 2.75 1.71875 2.5 1.34375 2.4375 1.09375 C 2.421875 1.015625 2.421875 1 2.421875 0.71875 L 2.421875 -0.953125 C 2.421875 -1.15625 2.421875 -1.71875 1.484375 -1.984375 C 2.09375 -2.171875 2.3125 -2.46875 2.390625 -2.75 C 2.421875 -2.859375 2.421875 -2.90625 2.421875 -3.15625 Z M 2.421875 -4.828125 "/>
</g>
<g id="glyph-0-5">
<path d="M 2.421875 -4.8125 C 2.421875 -5.046875 2.421875 -5.375 1.984375 -5.671875 C 1.65625 -5.890625 1.125 -5.96875 0.78125 -5.96875 C 0.671875 -5.96875 0.59375 -5.96875 0.59375 -5.859375 C 0.59375 -5.765625 0.65625 -5.765625 0.71875 -5.75 C 1.453125 -5.703125 1.734375 -5.359375 1.796875 -5.0625 C 1.8125 -4.984375 1.8125 -4.921875 1.8125 -4.8125 L 1.8125 -3.140625 C 1.8125 -2.78125 1.8125 -2.265625 2.734375 -1.984375 C 2.296875 -1.859375 1.953125 -1.640625 1.84375 -1.234375 C 1.8125 -1.125 1.8125 -1.078125 1.8125 -0.828125 L 1.8125 0.609375 C 1.8125 1.140625 1.8125 1.21875 1.546875 1.484375 C 1.53125 1.5 1.3125 1.734375 0.75 1.765625 C 0.640625 1.78125 0.59375 1.78125 0.59375 1.875 C 0.59375 1.984375 0.671875 1.984375 0.78125 1.984375 C 1.640625 1.984375 2.40625 1.609375 2.421875 0.984375 L 2.421875 -0.609375 C 2.421875 -1.15625 2.421875 -1.34375 2.65625 -1.5625 C 2.921875 -1.796875 3.203125 -1.859375 3.46875 -1.875 C 3.578125 -1.890625 3.640625 -1.890625 3.640625 -1.984375 C 3.640625 -2.09375 3.5625 -2.09375 3.5 -2.109375 C 2.609375 -2.15625 2.421875 -2.703125 2.421875 -2.9375 Z M 2.421875 -4.8125 "/>
</g>
<g id="glyph-1-0">
<path d="M 2.140625 -3.796875 C 2.140625 -3.984375 2.125 -3.984375 1.9375 -3.984375 C 1.546875 -3.59375 0.9375 -3.59375 0.71875 -3.59375 L 0.71875 -3.359375 C 0.875 -3.359375 1.28125 -3.359375 1.640625 -3.53125 L 1.640625 -0.515625 C 1.640625 -0.3125 1.640625 -0.234375 1.015625 -0.234375 L 0.765625 -0.234375 L 0.765625 0 C 1.09375 -0.03125 1.5625 -0.03125 1.890625 -0.03125 C 2.21875 -0.03125 2.6875 -0.03125 3.015625 0 L 3.015625 -0.234375 L 2.765625 -0.234375 C 2.140625 -0.234375 2.140625 -0.3125 2.140625 -0.515625 Z M 2.140625 -3.796875 "/>
</g>
<g id="glyph-1-1">
<path d="M 3.21875 -1.125 L 3 -1.125 C 2.984375 -1.03125 2.921875 -0.640625 2.84375 -0.578125 C 2.796875 -0.53125 2.3125 -0.53125 2.21875 -0.53125 L 1.109375 -0.53125 L 1.875 -1.15625 C 2.078125 -1.328125 2.609375 -1.703125 2.796875 -1.890625 C 2.96875 -2.0625 3.21875 -2.375 3.21875 -2.796875 C 3.21875 -3.546875 2.546875 -3.984375 1.734375 -3.984375 C 0.96875 -3.984375 0.4375 -3.46875 0.4375 -2.90625 C 0.4375 -2.609375 0.6875 -2.5625 0.75 -2.5625 C 0.90625 -2.5625 1.078125 -2.671875 1.078125 -2.890625 C 1.078125 -3.015625 1 -3.21875 0.734375 -3.21875 C 0.875 -3.515625 1.234375 -3.75 1.65625 -3.75 C 2.28125 -3.75 2.609375 -3.28125 2.609375 -2.796875 C 2.609375 -2.375 2.328125 -1.9375 1.921875 -1.546875 L 0.5 -0.25 C 0.4375 -0.1875 0.4375 -0.1875 0.4375 0 L 3.03125 0 Z M 3.21875 -1.125 "/>
</g>
<g id="glyph-1-2">
<path d="M 1.796875 0.921875 C 1.375 0.921875 1.3125 0.921875 1.3125 0.671875 L 1.3125 -0.28125 C 1.5625 -0.046875 1.84375 0.0625 2.171875 0.0625 C 3 0.0625 3.71875 -0.53125 3.71875 -1.296875 C 3.71875 -2.015625 3.09375 -2.640625 2.265625 -2.640625 C 1.71875 -2.640625 1.375 -2.375 1.296875 -2.28125 L 1.296875 -2.640625 L 0.34375 -2.578125 L 0.34375 -2.34375 C 0.75 -2.34375 0.8125 -2.34375 0.8125 -2.0625 L 0.8125 0.671875 C 0.8125 0.921875 0.765625 0.921875 0.34375 0.921875 L 0.34375 1.15625 C 0.390625 1.15625 0.796875 1.140625 1.0625 1.140625 C 1.328125 1.140625 1.734375 1.15625 1.796875 1.15625 Z M 1.3125 -1.984375 C 1.515625 -2.265625 1.84375 -2.421875 2.203125 -2.421875 C 2.75 -2.421875 3.140625 -1.90625 3.140625 -1.296875 C 3.140625 -0.625 2.671875 -0.125 2.140625 -0.125 C 1.671875 -0.125 1.40625 -0.453125 1.3125 -0.640625 Z M 1.3125 -1.984375 "/>
</g>
<g id="glyph-1-3">
<path d="M 3.359375 -1.28125 C 3.359375 -2.015625 2.6875 -2.671875 1.828125 -2.671875 C 0.953125 -2.671875 0.28125 -2.015625 0.28125 -1.28125 C 0.28125 -0.546875 0.96875 0.0625 1.828125 0.0625 C 2.6875 0.0625 3.359375 -0.546875 3.359375 -1.28125 Z M 1.828125 -0.15625 C 0.859375 -0.15625 0.859375 -1.046875 0.859375 -1.328125 C 0.859375 -1.515625 0.859375 -1.921875 1.078125 -2.171875 C 1.28125 -2.390625 1.53125 -2.484375 1.828125 -2.484375 C 2.109375 -2.484375 2.375 -2.390625 2.578125 -2.171875 C 2.796875 -1.921875 2.796875 -1.515625 2.796875 -1.328125 C 2.796875 -1.046875 2.796875 -0.15625 1.828125 -0.15625 Z M 1.828125 -0.15625 "/>
</g>
<g id="glyph-1-4">
<path d="M 4.890625 -2.03125 C 4.984375 -2.03125 5.109375 -2.03125 5.109375 -2.1875 C 5.109375 -2.34375 4.953125 -2.34375 4.859375 -2.34375 L 0.71875 -2.34375 C 0.640625 -2.34375 0.46875 -2.34375 0.46875 -2.1875 C 0.46875 -2.03125 0.609375 -2.03125 0.6875 -2.03125 Z M 4.859375 -0.65625 C 4.953125 -0.65625 5.109375 -0.65625 5.109375 -0.8125 C 5.109375 -0.96875 4.984375 -0.96875 4.890625 -0.96875 L 0.6875 -0.96875 C 0.609375 -0.96875 0.46875 -0.96875 0.46875 -0.8125 C 0.46875 -0.65625 0.640625 -0.65625 0.71875 -0.65625 Z M 4.859375 -0.65625 "/>
</g>
<g id="glyph-2-0">
<path d="M 1.625 -0.4375 C 1.625 -0.703125 1.390625 -0.890625 1.171875 -0.890625 C 0.921875 -0.890625 0.734375 -0.671875 0.734375 -0.453125 C 0.734375 -0.171875 0.953125 0 1.171875 0 C 1.421875 0 1.625 -0.203125 1.625 -0.4375 Z M 1.625 -0.4375 "/>
</g>
<g id="glyph-2-1">
<path d="M 3.046875 -3.171875 L 3.796875 -3.171875 C 3.953125 -3.171875 4.046875 -3.171875 4.046875 -3.328125 C 4.046875 -3.4375 3.9375 -3.4375 3.8125 -3.4375 L 3.09375 -3.4375 C 3.234375 -4.15625 3.3125 -4.609375 3.390625 -4.96875 C 3.421875 -5.09375 3.4375 -5.1875 3.5625 -5.28125 C 3.671875 -5.375 3.734375 -5.390625 3.8125 -5.390625 C 3.9375 -5.390625 4.0625 -5.359375 4.171875 -5.296875 C 4.125 -5.28125 4.078125 -5.265625 4.046875 -5.234375 C 3.90625 -5.15625 3.8125 -5.015625 3.8125 -4.859375 C 3.8125 -4.671875 3.953125 -4.5625 4.125 -4.5625 C 4.359375 -4.5625 4.578125 -4.765625 4.578125 -5.046875 C 4.578125 -5.421875 4.1875 -5.609375 3.8125 -5.609375 C 3.53125 -5.609375 3.03125 -5.484375 2.78125 -4.75 C 2.703125 -4.5625 2.703125 -4.546875 2.5 -3.4375 L 1.890625 -3.4375 C 1.734375 -3.4375 1.640625 -3.4375 1.640625 -3.28125 C 1.640625 -3.171875 1.75 -3.171875 1.875 -3.171875 L 2.453125 -3.171875 L 1.875 -0.078125 C 1.71875 0.71875 1.609375 1.40625 1.171875 1.40625 C 1.15625 1.40625 0.984375 1.40625 0.84375 1.3125 C 1.203125 1.21875 1.203125 0.890625 1.203125 0.875 C 1.203125 0.6875 1.0625 0.578125 0.890625 0.578125 C 0.671875 0.578125 0.4375 0.765625 0.4375 1.0625 C 0.4375 1.40625 0.78125 1.625 1.171875 1.625 C 1.671875 1.625 2 1.109375 2.109375 0.921875 C 2.390625 0.390625 2.578125 -0.609375 2.59375 -0.6875 Z M 3.046875 -3.171875 "/>
</g>
<g id="glyph-2-2">
<path d="M 3.796875 -3.28125 C 3.796875 -3.3125 3.8125 -3.359375 3.8125 -3.40625 C 3.8125 -3.453125 3.78125 -3.515625 3.703125 -3.515625 C 3.609375 -3.515625 3.28125 -3.203125 3.15625 -2.984375 C 3.0625 -3.15625 2.828125 -3.515625 2.328125 -3.515625 C 1.390625 -3.515625 0.34375 -2.40625 0.34375 -1.234375 C 0.34375 -0.390625 0.875 0.078125 1.484375 0.078125 C 1.890625 0.078125 2.21875 -0.15625 2.453125 -0.359375 C 2.453125 -0.328125 2.203125 0.671875 2.171875 0.8125 C 2.046875 1.265625 2.046875 1.28125 1.546875 1.28125 C 1.453125 1.28125 1.34375 1.28125 1.34375 1.4375 C 1.34375 1.484375 1.390625 1.546875 1.46875 1.546875 C 1.5625 1.546875 1.75 1.53125 1.859375 1.515625 L 2.28125 1.515625 C 2.921875 1.515625 3.0625 1.546875 3.125 1.546875 C 3.15625 1.546875 3.28125 1.546875 3.28125 1.390625 C 3.28125 1.28125 3.15625 1.28125 3.0625 1.28125 C 2.6875 1.28125 2.6875 1.234375 2.6875 1.15625 C 2.6875 1.15625 2.6875 1.109375 2.71875 1 Z M 2.609375 -0.984375 C 2.578125 -0.875 2.578125 -0.84375 2.453125 -0.6875 C 2.03125 -0.203125 1.6875 -0.140625 1.515625 -0.140625 C 1.140625 -0.140625 0.96875 -0.484375 0.96875 -0.890625 C 0.96875 -1.265625 1.171875 -2.125 1.359375 -2.46875 C 1.578125 -2.953125 1.96875 -3.296875 2.34375 -3.296875 C 2.875 -3.296875 3.015625 -2.671875 3.015625 -2.609375 C 3.015625 -2.578125 3 -2.53125 2.984375 -2.484375 Z M 2.609375 -0.984375 "/>
</g>
<g id="glyph-2-3">
<path d="M 0.421875 0.96875 C 0.34375 1.21875 0.328125 1.28125 0.015625 1.28125 C -0.09375 1.28125 -0.1875 1.28125 -0.1875 1.4375 C -0.1875 1.5 -0.125 1.546875 -0.078125 1.546875 C 0 1.546875 0.03125 1.515625 0.625 1.515625 C 1.1875 1.515625 1.359375 1.546875 1.421875 1.546875 C 1.453125 1.546875 1.5625 1.546875 1.5625 1.390625 C 1.5625 1.28125 1.453125 1.28125 1.359375 1.28125 C 0.984375 1.28125 0.984375 1.234375 0.984375 1.15625 C 0.984375 1.109375 1.125 0.546875 1.359375 -0.390625 C 1.46875 -0.203125 1.71875 0.078125 2.140625 0.078125 C 3.125 0.078125 4.140625 -1.046875 4.140625 -2.203125 C 4.140625 -3 3.640625 -3.515625 3 -3.515625 C 2.515625 -3.515625 2.140625 -3.1875 1.90625 -2.953125 C 1.734375 -3.515625 1.203125 -3.515625 1.125 -3.515625 C 0.84375 -3.515625 0.640625 -3.328125 0.515625 -3.078125 C 0.328125 -2.71875 0.234375 -2.3125 0.234375 -2.296875 C 0.234375 -2.21875 0.296875 -2.1875 0.359375 -2.1875 C 0.46875 -2.1875 0.46875 -2.21875 0.53125 -2.4375 C 0.625 -2.84375 0.765625 -3.296875 1.09375 -3.296875 C 1.296875 -3.296875 1.359375 -3.109375 1.359375 -2.921875 C 1.359375 -2.84375 1.328125 -2.640625 1.3125 -2.578125 Z M 1.875 -2.453125 C 1.921875 -2.59375 1.921875 -2.609375 2.046875 -2.75 C 2.34375 -3.109375 2.6875 -3.296875 2.96875 -3.296875 C 3.375 -3.296875 3.515625 -2.90625 3.515625 -2.546875 C 3.515625 -2.25 3.34375 -1.390625 3.109375 -0.921875 C 2.90625 -0.5 2.515625 -0.140625 2.140625 -0.140625 C 1.609375 -0.140625 1.46875 -0.765625 1.46875 -0.828125 C 1.46875 -0.84375 1.484375 -0.921875 1.5 -0.953125 Z M 1.875 -2.453125 "/>
</g>
<g id="glyph-2-4">
<path d="M 4.28125 -5.296875 C 4.296875 -5.3125 4.3125 -5.40625 4.3125 -5.421875 C 4.3125 -5.453125 4.28125 -5.53125 4.1875 -5.53125 C 4.15625 -5.53125 3.90625 -5.5 3.734375 -5.484375 L 3.28125 -5.453125 C 3.109375 -5.4375 3.03125 -5.4375 3.03125 -5.296875 C 3.03125 -5.171875 3.140625 -5.171875 3.234375 -5.171875 C 3.625 -5.171875 3.625 -5.125 3.625 -5.0625 C 3.625 -5.015625 3.546875 -4.75 3.515625 -4.59375 L 3.125 -3.03125 C 3.046875 -3.171875 2.828125 -3.515625 2.328125 -3.515625 C 1.390625 -3.515625 0.34375 -2.40625 0.34375 -1.234375 C 0.34375 -0.390625 0.875 0.078125 1.484375 0.078125 C 2 0.078125 2.4375 -0.328125 2.578125 -0.484375 C 2.71875 0.0625 3.265625 0.078125 3.359375 0.078125 C 3.734375 0.078125 3.90625 -0.21875 3.96875 -0.359375 C 4.140625 -0.640625 4.25 -1.109375 4.25 -1.140625 C 4.25 -1.1875 4.21875 -1.25 4.125 -1.25 C 4.03125 -1.25 4.015625 -1.1875 3.953125 -1 C 3.84375 -0.5625 3.703125 -0.140625 3.390625 -0.140625 C 3.203125 -0.140625 3.125 -0.296875 3.125 -0.515625 C 3.125 -0.671875 3.15625 -0.75 3.171875 -0.859375 Z M 2.578125 -0.859375 C 2.1875 -0.3125 1.765625 -0.140625 1.515625 -0.140625 C 1.140625 -0.140625 0.96875 -0.484375 0.96875 -0.890625 C 0.96875 -1.265625 1.171875 -2.125 1.359375 -2.46875 C 1.578125 -2.953125 1.96875 -3.296875 2.34375 -3.296875 C 2.859375 -3.296875 3.015625 -2.703125 3.015625 -2.609375 C 3.015625 -2.578125 2.8125 -1.796875 2.765625 -1.59375 C 2.65625 -1.21875 2.65625 -1.203125 2.578125 -0.859375 Z M 2.578125 -0.859375 "/>
</g>
<g id="glyph-3-0">
<path d="M 5.265625 -3.421875 C 5.328125 -3.6875 5.453125 -3.828125 5.90625 -3.84375 C 5.9375 -3.84375 6.03125 -3.859375 6.03125 -3.984375 C 6.03125 -4.046875 6 -4.09375 5.9375 -4.09375 C 5.796875 -4.09375 5.453125 -4.0625 5.296875 -4.0625 L 4.96875 -4.0625 C 4.859375 -4.0625 4.734375 -4.09375 4.640625 -4.09375 C 4.53125 -4.09375 4.5 -4.015625 4.5 -3.9375 C 4.5 -3.84375 4.609375 -3.84375 4.65625 -3.84375 C 4.9375 -3.84375 5.046875 -3.765625 5.046875 -3.609375 C 5.046875 -3.578125 5.03125 -3.546875 5.03125 -3.515625 L 4.375 -0.890625 L 2.734375 -3.984375 C 2.6875 -4.078125 2.671875 -4.09375 2.53125 -4.09375 L 1.671875 -4.09375 C 1.5625 -4.09375 1.46875 -4.09375 1.46875 -3.9375 C 1.46875 -3.84375 1.546875 -3.84375 1.6875 -3.84375 C 1.71875 -3.84375 1.921875 -3.84375 2.078125 -3.8125 L 1.28125 -0.671875 C 1.21875 -0.4375 1.125 -0.25 0.640625 -0.234375 C 0.5625 -0.234375 0.5 -0.203125 0.5 -0.078125 C 0.515625 -0.0625 0.515625 0 0.609375 0 C 0.75 0 1.09375 -0.03125 1.25 -0.03125 L 1.578125 -0.015625 C 1.6875 -0.015625 1.8125 0 1.90625 0 C 2.03125 0 2.046875 -0.125 2.046875 -0.15625 C 2.015625 -0.234375 1.96875 -0.234375 1.890625 -0.234375 C 1.609375 -0.25 1.5 -0.328125 1.5 -0.484375 C 1.5 -0.515625 1.5 -0.53125 1.515625 -0.609375 L 2.28125 -3.65625 L 4.171875 -0.109375 C 4.203125 -0.015625 4.21875 0 4.296875 0 C 4.40625 0 4.421875 -0.03125 4.4375 -0.140625 Z M 5.265625 -3.421875 "/>
</g>
<g id="glyph-3-1">
<path d="M 2.078125 -3.734375 C 2.078125 -3.875 1.96875 -3.96875 1.84375 -3.96875 C 1.671875 -3.96875 1.5 -3.8125 1.5 -3.640625 C 1.5 -3.5 1.609375 -3.40625 1.734375 -3.40625 C 1.9375 -3.40625 2.078125 -3.578125 2.078125 -3.734375 Z M 1.71875 -1.640625 C 1.75 -1.703125 1.796875 -1.84375 1.828125 -1.90625 C 1.84375 -1.953125 1.859375 -2.015625 1.859375 -2.125 C 1.859375 -2.453125 1.5625 -2.640625 1.265625 -2.640625 C 0.65625 -2.640625 0.359375 -1.84375 0.359375 -1.71875 C 0.359375 -1.6875 0.390625 -1.640625 0.46875 -1.640625 C 0.5625 -1.640625 0.578125 -1.671875 0.59375 -1.71875 C 0.765625 -2.296875 1.078125 -2.4375 1.25 -2.4375 C 1.359375 -2.4375 1.40625 -2.359375 1.40625 -2.21875 C 1.40625 -2.109375 1.375 -2.015625 1.359375 -1.96875 L 1.046875 -1.203125 C 0.96875 -1.03125 0.96875 -1.015625 0.890625 -0.8125 C 0.8125 -0.640625 0.796875 -0.5625 0.796875 -0.453125 C 0.796875 -0.15625 1.0625 0.0625 1.390625 0.0625 C 2 0.0625 2.296875 -0.734375 2.296875 -0.859375 C 2.296875 -0.875 2.296875 -0.953125 2.1875 -0.953125 C 2.09375 -0.953125 2.09375 -0.921875 2.0625 -0.796875 C 1.96875 -0.5 1.71875 -0.140625 1.40625 -0.140625 C 1.296875 -0.140625 1.25 -0.203125 1.25 -0.359375 C 1.25 -0.46875 1.28125 -0.5625 1.359375 -0.75 Z M 1.71875 -1.640625 "/>
</g>
<g id="glyph-4-0">
<path d="M 0.578125 -5.453125 L 0.578125 -5.1875 C 0.671875 -5.1875 0.78125 -5.203125 0.875 -5.203125 C 1.15625 -5.203125 1.390625 -5.15625 1.390625 -4.84375 L 1.390625 -0.625 C 1.390625 -0.296875 1.125 -0.265625 0.859375 -0.265625 C 0.75 -0.265625 0.671875 -0.265625 0.578125 -0.265625 L 0.578125 -0.015625 L 3.546875 -0.015625 C 4.765625 -0.015625 6.09375 -0.578125 6.4375 -2.203125 C 6.46875 -2.359375 6.46875 -2.515625 6.46875 -2.671875 C 6.46875 -4.1875 5.296875 -5.453125 3.546875 -5.453125 C 3.359375 -5.453125 3.171875 -5.453125 2.984375 -5.453125 Z M 5.65625 -2.40625 C 5.640625 -2.078125 5.59375 -1.765625 5.46875 -1.46875 C 5.234375 -0.875 4.6875 -0.46875 4.0625 -0.328125 C 3.78125 -0.265625 3.5 -0.265625 3.21875 -0.265625 L 2.40625 -0.265625 C 2.21875 -0.265625 2.09375 -0.3125 2.09375 -0.5625 L 2.09375 -4.59375 C 2.09375 -4.671875 2.09375 -4.75 2.09375 -4.828125 C 2.09375 -5.140625 2.203125 -5.1875 2.4375 -5.1875 L 3.625 -5.1875 C 4.15625 -5.1875 4.703125 -4.9375 5.0625 -4.5625 C 5.53125 -4.09375 5.671875 -3.40625 5.671875 -2.75 L 5.671875 -2.578125 C 5.671875 -2.515625 5.671875 -2.453125 5.65625 -2.40625 Z M 5.65625 -2.40625 "/>
</g>
<g id="glyph-4-1">
<path d="M 0.421875 -3.765625 L 0.421875 -3.53125 L 0.546875 -3.53125 C 0.734375 -3.53125 0.9375 -3.515625 0.9375 -3.234375 L 0.9375 -0.53125 C 0.9375 -0.234375 0.6875 -0.234375 0.421875 -0.234375 L 0.421875 -0.015625 L 0.84375 -0.03125 L 1.578125 -0.03125 L 2.03125 -0.015625 L 2.03125 -0.234375 L 1.890625 -0.234375 C 1.703125 -0.234375 1.5 -0.25 1.5 -0.546875 L 1.5 -3.25 C 1.5 -3.53125 1.765625 -3.53125 2.03125 -3.53125 L 2.03125 -3.765625 L 1.609375 -3.734375 L 0.859375 -3.734375 Z M 0.421875 -3.765625 "/>
</g>
<g id="glyph-4-2">
<path d="M 0.453125 -3.765625 L 0.453125 -3.53125 L 0.765625 -3.515625 L 0.9375 -3.484375 L 0.9375 -0.859375 C 0.9375 -0.609375 0.90625 -0.234375 0.453125 -0.234375 L 0.453125 -0.015625 L 0.78125 -0.03125 L 1.359375 -0.03125 L 1.703125 -0.015625 L 1.703125 -0.234375 C 1.234375 -0.234375 1.21875 -0.625 1.21875 -0.921875 L 1.21875 -3.265625 C 1.296875 -3.171875 1.375 -3.0625 1.4375 -2.96875 L 1.875 -2.4375 C 2.5 -1.65625 3.109375 -0.875 3.734375 -0.109375 C 3.78125 -0.046875 3.8125 -0.015625 3.890625 -0.015625 C 4 -0.015625 4.03125 -0.078125 4.03125 -0.171875 L 4.03125 -3.046875 C 4.0625 -3.375 4.25 -3.53125 4.515625 -3.53125 L 4.515625 -3.765625 L 4.171875 -3.734375 L 3.609375 -3.734375 L 3.265625 -3.765625 L 3.265625 -3.53125 C 3.53125 -3.53125 3.71875 -3.375 3.75 -3.046875 L 3.75 -0.859375 L 1.65625 -3.5 L 1.4375 -3.75 L 1.3125 -3.765625 Z M 0.453125 -3.765625 "/>
</g>
<g id="glyph-4-3">
<path d="M 3.90625 -0.3125 L 3.921875 -0.3125 C 4 -0.203125 4.1875 -0.015625 4.28125 -0.015625 C 4.359375 -0.015625 4.375 -0.09375 4.375 -0.15625 L 4.375 -0.984375 C 4.375 -1.1875 4.421875 -1.328125 4.71875 -1.328125 L 4.828125 -1.328125 L 4.828125 -1.546875 L 4.421875 -1.515625 L 3.578125 -1.515625 L 3 -1.546875 L 3 -1.328125 L 3.203125 -1.328125 C 3.578125 -1.328125 3.8125 -1.296875 3.8125 -0.9375 L 3.8125 -0.75 C 3.8125 -0.609375 3.78125 -0.421875 3.640625 -0.34375 C 3.390625 -0.171875 3.015625 -0.15625 2.765625 -0.15625 C 1.828125 -0.15625 1.09375 -0.8125 1.09375 -1.859375 C 1.09375 -2.1875 1.140625 -2.53125 1.3125 -2.828125 C 1.578125 -3.328125 2.140625 -3.625 2.703125 -3.625 C 3.34375 -3.625 3.90625 -3.21875 4.109375 -2.59375 C 4.15625 -2.46875 4.125 -2.265625 4.265625 -2.265625 C 4.34375 -2.265625 4.375 -2.328125 4.375 -2.375 L 4.375 -3.546875 C 4.375 -3.578125 4.375 -3.625 4.375 -3.671875 C 4.375 -3.765625 4.359375 -3.84375 4.28125 -3.84375 C 4.1875 -3.84375 4.09375 -3.6875 4.015625 -3.578125 C 3.953125 -3.515625 3.90625 -3.453125 3.859375 -3.390625 C 3.5625 -3.671875 3.171875 -3.8125 2.78125 -3.84375 L 2.703125 -3.84375 C 1.703125 -3.84375 0.484375 -3.21875 0.421875 -1.96875 L 0.421875 -1.890625 C 0.421875 -0.671875 1.609375 0.078125 2.703125 0.078125 C 3.109375 0.078125 3.703125 0.03125 3.90625 -0.3125 Z M 3.90625 -0.3125 "/>
</g>
<g id="glyph-4-4">
<path d="M 2.4375 -3.84375 C 1.53125 -3.75 0.421875 -3.15625 0.421875 -1.84375 L 0.421875 -1.78125 C 0.5 -0.59375 1.5625 0.078125 2.578125 0.078125 C 3.59375 0.078125 4.71875 -0.640625 4.71875 -1.859375 L 4.71875 -1.921875 C 4.65625 -3.078125 3.65625 -3.84375 2.5625 -3.84375 Z M 1.09375 -1.8125 L 1.09375 -1.90625 C 1.09375 -2.359375 1.1875 -2.859375 1.546875 -3.1875 C 1.828125 -3.453125 2.203125 -3.59375 2.578125 -3.59375 C 3.46875 -3.59375 4.0625 -2.890625 4.0625 -1.9375 C 4.0625 -1.15625 3.640625 -0.1875 2.578125 -0.1875 C 2.09375 -0.1875 1.609375 -0.453125 1.359375 -0.875 C 1.171875 -1.15625 1.125 -1.484375 1.09375 -1.8125 Z M 1.09375 -1.8125 "/>
</g>
<g id="glyph-5-0">
<path d="M 0.9375 -1.828125 L 3.375 -1.828125 C 3.46875 -1.828125 3.515625 -1.875 3.515625 -1.96875 C 3.515625 -2.375 3.40625 -2.84375 3.109375 -3.125 C 2.828125 -3.421875 2.4375 -3.546875 2.03125 -3.546875 C 1.09375 -3.546875 0.234375 -2.84375 0.234375 -1.765625 C 0.234375 -0.859375 0.953125 0.078125 2.109375 0.078125 C 2.703125 0.078125 3.34375 -0.296875 3.5 -0.890625 C 3.515625 -0.90625 3.515625 -0.9375 3.515625 -0.953125 C 3.515625 -1.015625 3.46875 -1.078125 3.40625 -1.078125 C 3.25 -1.078125 3.234375 -0.828125 3.15625 -0.71875 C 2.953125 -0.390625 2.5625 -0.1875 2.171875 -0.1875 C 1.75 -0.1875 1.34375 -0.40625 1.125 -0.796875 C 0.96875 -1.109375 0.9375 -1.46875 0.9375 -1.828125 Z M 0.953125 -2.046875 C 1.03125 -2.5 1.109375 -2.984375 1.578125 -3.21875 C 1.71875 -3.296875 1.859375 -3.328125 2.015625 -3.328125 C 2.53125 -3.328125 2.875 -2.90625 2.953125 -2.328125 C 2.96875 -2.234375 2.96875 -2.140625 2.984375 -2.046875 Z M 0.953125 -2.046875 "/>
</g>
<g id="glyph-5-1">
<path d="M 0.3125 -3.421875 L 0.3125 -3.15625 L 0.46875 -3.15625 C 0.703125 -3.15625 0.921875 -3.125 0.921875 -2.765625 L 0.921875 -0.609375 C 0.921875 -0.28125 0.71875 -0.265625 0.3125 -0.265625 L 0.3125 -0.015625 L 0.8125 -0.03125 L 1.640625 -0.03125 L 2.140625 -0.015625 L 2.140625 -0.265625 L 1.96875 -0.265625 C 1.734375 -0.265625 1.53125 -0.296875 1.53125 -0.59375 L 1.53125 -2.0625 C 1.53125 -2.640625 1.90625 -3.296875 2.6875 -3.296875 C 3.140625 -3.296875 3.28125 -2.90625 3.28125 -2.421875 L 3.28125 -0.578125 C 3.28125 -0.296875 3.0625 -0.265625 2.828125 -0.265625 L 2.671875 -0.265625 L 2.671875 -0.015625 L 3.171875 -0.03125 L 4.015625 -0.03125 L 4.5 -0.015625 L 4.5 -0.265625 L 4.328125 -0.265625 C 4.078125 -0.265625 3.890625 -0.296875 3.890625 -0.59375 L 3.890625 -2.0625 C 3.890625 -2.640625 4.265625 -3.296875 5.046875 -3.296875 C 5.5 -3.296875 5.625 -2.90625 5.625 -2.421875 L 5.625 -0.578125 C 5.625 -0.296875 5.40625 -0.265625 5.171875 -0.265625 L 5.015625 -0.265625 L 5.015625 -0.015625 L 5.515625 -0.03125 L 6.359375 -0.03125 L 6.84375 -0.015625 L 6.84375 -0.265625 L 6.703125 -0.265625 C 6.46875 -0.265625 6.234375 -0.296875 6.234375 -0.578125 L 6.234375 -2.28125 C 6.234375 -2.546875 6.234375 -2.8125 6.109375 -3.046875 C 5.921875 -3.390625 5.5 -3.515625 5.125 -3.515625 C 4.640625 -3.515625 4.046875 -3.28125 3.859375 -2.78125 L 3.84375 -2.78125 C 3.78125 -3.328125 3.21875 -3.515625 2.734375 -3.515625 C 2.25 -3.515625 1.671875 -3.234375 1.484375 -2.75 L 1.484375 -3.515625 L 1.1875 -3.484375 Z M 0.3125 -3.421875 "/>
</g>
<g id="glyph-5-2">
<path d="M 0.265625 -5.453125 L 0.265625 -5.1875 L 0.390625 -5.1875 C 0.640625 -5.1875 0.875 -5.15625 0.875 -4.796875 L 0.875 -0.015625 L 1.109375 -0.015625 L 1.40625 -0.5 C 1.71875 -0.15625 2.0625 0.078125 2.53125 0.078125 C 3.5 0.078125 4.421875 -0.6875 4.421875 -1.71875 C 4.421875 -2.65625 3.65625 -3.515625 2.625 -3.515625 C 2.171875 -3.515625 1.78125 -3.34375 1.46875 -3.03125 L 1.46875 -5.53125 Z M 3.703125 -1.546875 C 3.671875 -1.21875 3.625 -0.875 3.390625 -0.59375 C 3.15625 -0.3125 2.828125 -0.15625 2.484375 -0.15625 C 2.140625 -0.15625 1.484375 -0.46875 1.484375 -0.921875 L 1.484375 -2.1875 C 1.484375 -2.28125 1.484375 -2.390625 1.484375 -2.484375 C 1.484375 -2.953125 2.09375 -3.296875 2.5625 -3.296875 C 3.453125 -3.296875 3.703125 -2.359375 3.703125 -1.71875 C 3.703125 -1.65625 3.703125 -1.609375 3.703125 -1.546875 Z M 3.703125 -1.546875 "/>
</g>
<g id="glyph-5-3">
<path d="M 2.625 -5.453125 L 2.625 -5.1875 L 2.703125 -5.1875 C 3.015625 -5.1875 3.234375 -5.171875 3.234375 -4.703125 L 3.234375 -3.0625 C 2.9375 -3.34375 2.578125 -3.515625 2.15625 -3.515625 C 1.171875 -3.515625 0.28125 -2.75 0.28125 -1.71875 C 0.28125 -0.734375 1.09375 0.078125 2.078125 0.078125 C 2.5 0.078125 2.921875 -0.109375 3.203125 -0.4375 L 3.203125 0.078125 L 4.421875 -0.015625 L 4.421875 -0.265625 L 4.296875 -0.265625 C 4.0625 -0.265625 3.8125 -0.296875 3.8125 -0.671875 L 3.8125 -5.53125 Z M 0.984375 -1.546875 L 0.984375 -1.65625 C 0.984375 -2.21875 1.09375 -2.890625 1.703125 -3.171875 C 1.859375 -3.25 2.046875 -3.296875 2.203125 -3.296875 C 2.5625 -3.296875 2.953125 -3.09375 3.140625 -2.765625 C 3.171875 -2.734375 3.203125 -2.703125 3.203125 -2.65625 L 3.203125 -0.9375 C 3.203125 -0.53125 2.546875 -0.15625 2.140625 -0.15625 C 1.546875 -0.15625 1.125 -0.625 1.03125 -1.1875 C 1.015625 -1.3125 1 -1.421875 0.984375 -1.546875 Z M 0.984375 -1.546875 "/>
</g>
<g id="glyph-5-4">
<path d="M 0.359375 -3.421875 L 0.359375 -3.15625 L 0.484375 -3.15625 C 0.734375 -3.15625 0.9375 -3.109375 0.9375 -2.765625 L 0.9375 -0.609375 C 0.9375 -0.28125 0.71875 -0.265625 0.328125 -0.265625 L 0.328125 -0.015625 L 0.8125 -0.03125 L 1.625 -0.03125 L 2.0625 -0.015625 L 2.0625 -0.265625 L 1.953125 -0.265625 C 1.71875 -0.265625 1.515625 -0.28125 1.515625 -0.5625 L 1.515625 -3.515625 L 1.234375 -3.484375 Z M 1.046875 -5.34375 C 0.8125 -5.3125 0.65625 -5.109375 0.65625 -4.90625 C 0.65625 -4.6875 0.84375 -4.46875 1.09375 -4.46875 C 1.359375 -4.46875 1.546875 -4.6875 1.546875 -4.921875 C 1.546875 -5.125 1.375 -5.359375 1.109375 -5.359375 C 1.09375 -5.359375 1.0625 -5.34375 1.046875 -5.34375 Z M 1.046875 -5.34375 "/>
</g>
<g id="glyph-5-5">
<path d="M 0.3125 -3.421875 L 0.3125 -3.15625 L 0.46875 -3.15625 C 0.703125 -3.15625 0.921875 -3.125 0.921875 -2.765625 L 0.921875 -0.609375 C 0.921875 -0.28125 0.71875 -0.265625 0.3125 -0.265625 L 0.3125 -0.015625 L 0.8125 -0.03125 L 1.640625 -0.03125 L 2.140625 -0.015625 L 2.140625 -0.265625 L 1.96875 -0.265625 C 1.734375 -0.265625 1.53125 -0.296875 1.53125 -0.59375 L 1.53125 -2.0625 C 1.53125 -2.65625 1.921875 -3.296875 2.6875 -3.296875 C 3.140625 -3.296875 3.265625 -2.890625 3.265625 -2.421875 L 3.265625 -0.578125 C 3.265625 -0.296875 3.046875 -0.265625 2.828125 -0.265625 L 2.65625 -0.265625 L 2.65625 -0.015625 L 3.15625 -0.03125 L 4 -0.03125 L 4.484375 -0.015625 L 4.484375 -0.265625 L 4.328125 -0.265625 C 4.09375 -0.265625 3.875 -0.296875 3.875 -0.578125 L 3.875 -2.28125 C 3.875 -2.546875 3.875 -2.8125 3.75 -3.0625 C 3.546875 -3.40625 3.125 -3.515625 2.75 -3.515625 C 2.265625 -3.515625 1.671875 -3.25 1.484375 -2.75 L 1.484375 -3.515625 L 1.1875 -3.484375 Z M 0.3125 -3.421875 "/>
</g>
<g id="glyph-5-6">
<path d="M 0.96875 -0.171875 C 0.609375 -0.109375 0.234375 0.21875 0.234375 0.609375 C 0.234375 1.4375 1.546875 1.625 2.109375 1.625 C 2.765625 1.625 4 1.421875 4 0.59375 C 4 -0.40625 2.9375 -0.5625 2.140625 -0.5625 L 1.453125 -0.5625 C 1.140625 -0.5625 0.9375 -0.8125 0.9375 -1.09375 L 0.9375 -1.125 C 0.953125 -1.234375 0.984375 -1.375 1.0625 -1.390625 C 1.09375 -1.390625 1.171875 -1.34375 1.21875 -1.3125 C 1.421875 -1.21875 1.65625 -1.171875 1.875 -1.171875 C 2.515625 -1.171875 3.25 -1.59375 3.25 -2.328125 C 3.25 -2.5625 3.171875 -2.8125 3.03125 -2.984375 C 3 -3.015625 2.953125 -3.0625 2.953125 -3.09375 C 2.953125 -3.21875 3.421875 -3.375 3.6875 -3.375 C 3.640625 -3.328125 3.609375 -3.265625 3.609375 -3.1875 C 3.609375 -3.046875 3.71875 -2.9375 3.859375 -2.9375 C 4 -2.9375 4.109375 -3.046875 4.109375 -3.1875 C 4.109375 -3.453125 3.875 -3.609375 3.640625 -3.609375 C 3.359375 -3.609375 3.03125 -3.46875 2.859375 -3.3125 C 2.84375 -3.296875 2.8125 -3.265625 2.765625 -3.265625 L 2.75 -3.265625 C 2.71875 -3.265625 2.65625 -3.3125 2.59375 -3.34375 C 2.359375 -3.453125 2.140625 -3.515625 1.890625 -3.515625 C 1.25 -3.515625 0.515625 -3.09375 0.515625 -2.34375 C 0.515625 -2.09375 0.609375 -1.828125 0.78125 -1.640625 C 0.8125 -1.609375 0.859375 -1.5625 0.859375 -1.53125 L 0.859375 -1.515625 C 0.859375 -1.453125 0.71875 -1.296875 0.6875 -1.171875 C 0.65625 -1.078125 0.640625 -0.984375 0.640625 -0.890625 C 0.640625 -0.578125 0.75 -0.4375 0.96875 -0.171875 Z M 0.703125 0.65625 C 0.703125 0.625 0.703125 0.609375 0.703125 0.59375 C 0.703125 0.15625 1.15625 -0.03125 1.53125 -0.03125 L 2.140625 -0.03125 C 2.734375 -0.03125 3.4375 0.015625 3.515625 0.5625 L 3.515625 0.609375 C 3.515625 0.921875 3.140625 1.171875 2.921875 1.25 C 2.65625 1.359375 2.359375 1.390625 2.09375 1.390625 C 1.578125 1.390625 0.765625 1.171875 0.703125 0.65625 Z M 1.140625 -2.203125 L 1.140625 -2.296875 C 1.140625 -2.75 1.28125 -3.28125 1.875 -3.28125 C 2.375 -3.28125 2.625 -2.859375 2.625 -2.3125 C 2.625 -1.84375 2.40625 -1.40625 1.875 -1.40625 C 1.671875 -1.40625 1.46875 -1.5 1.328125 -1.671875 C 1.1875 -1.828125 1.15625 -2.015625 1.140625 -2.203125 Z M 1.140625 -2.203125 "/>
</g>
<g id="glyph-5-7">
<path d="M 0.46875 -5.390625 L 0.296875 -3.578125 L 0.546875 -3.578125 C 0.59375 -4 0.609375 -4.5625 0.875 -4.84375 C 1.140625 -5.109375 1.609375 -5.140625 1.953125 -5.140625 L 2.265625 -5.140625 C 2.46875 -5.140625 2.6875 -5.125 2.6875 -4.875 L 2.6875 -0.625 C 2.6875 -0.296875 2.359375 -0.265625 2.0625 -0.265625 L 1.546875 -0.265625 L 1.546875 -0.015625 L 4.546875 -0.015625 L 4.546875 -0.265625 L 4.046875 -0.265625 C 3.71875 -0.265625 3.421875 -0.296875 3.421875 -0.625 L 3.421875 -4.875 C 3.421875 -5.109375 3.609375 -5.140625 3.875 -5.140625 L 4.1875 -5.140625 C 4.6875 -5.140625 5.265625 -5.078125 5.4375 -4.40625 C 5.5 -4.140625 5.53125 -3.859375 5.546875 -3.578125 L 5.796875 -3.578125 L 5.640625 -5.390625 Z M 0.46875 -5.390625 "/>
</g>
<g id="glyph-5-8">
<path d="M 0.265625 -3.421875 L 0.265625 -3.15625 L 0.390625 -3.15625 C 0.640625 -3.15625 0.875 -3.140625 0.875 -2.765625 L 0.875 -0.609375 C 0.875 -0.28125 0.671875 -0.265625 0.265625 -0.265625 L 0.265625 -0.015625 L 0.75 -0.03125 L 1.65625 -0.03125 L 2.21875 -0.015625 L 2.21875 -0.265625 C 2.140625 -0.265625 2.046875 -0.265625 1.9375 -0.265625 C 1.6875 -0.265625 1.46875 -0.296875 1.46875 -0.59375 L 1.46875 -1.921875 C 1.46875 -2.5 1.78125 -3.296875 2.46875 -3.296875 C 2.390625 -3.21875 2.34375 -3.109375 2.34375 -3 C 2.34375 -2.78125 2.53125 -2.640625 2.703125 -2.640625 C 2.90625 -2.640625 3.0625 -2.8125 3.0625 -3 C 3.0625 -3.34375 2.71875 -3.515625 2.4375 -3.515625 C 1.96875 -3.515625 1.5 -3.09375 1.421875 -2.671875 L 1.40625 -3.515625 L 1.015625 -3.484375 Z M 0.265625 -3.421875 "/>
</g>
<g id="glyph-5-9">
<path d="M 1.0625 -3.125 L 1.0625 -3.140625 C 1.328125 -3.265625 1.546875 -3.328125 1.84375 -3.328125 C 2.375 -3.328125 2.734375 -2.921875 2.734375 -2.3125 L 2.734375 -2.125 C 1.75 -2.125 0.34375 -1.8125 0.34375 -0.8125 C 0.34375 -0.140625 1.15625 0.078125 1.671875 0.078125 C 2.125 0.078125 2.609375 -0.125 2.828125 -0.578125 C 2.828125 -0.234375 3.109375 0.03125 3.4375 0.03125 C 3.84375 0.03125 4.171875 -0.265625 4.171875 -0.6875 L 4.171875 -1.15625 L 3.921875 -1.15625 L 3.921875 -0.765625 C 3.921875 -0.5625 3.890625 -0.265625 3.640625 -0.265625 C 3.390625 -0.265625 3.359375 -0.5625 3.359375 -0.734375 L 3.359375 -2.078125 C 3.359375 -2.171875 3.359375 -2.28125 3.359375 -2.375 C 3.359375 -3.171875 2.546875 -3.546875 1.84375 -3.546875 C 1.421875 -3.546875 0.609375 -3.421875 0.609375 -2.78125 C 0.609375 -2.609375 0.71875 -2.40625 0.953125 -2.40625 C 1.21875 -2.40625 1.359375 -2.5625 1.359375 -2.765625 C 1.359375 -2.9375 1.265625 -3.09375 1.0625 -3.125 Z M 2.734375 -1.921875 L 2.734375 -1.140625 C 2.734375 -0.578125 2.3125 -0.15625 1.765625 -0.15625 C 1.40625 -0.15625 1.03125 -0.390625 1 -0.765625 L 1 -0.8125 C 1 -1.671875 2.078125 -1.875 2.734375 -1.921875 Z M 2.734375 -1.921875 "/>
</g>
<g id="glyph-5-10">
<path d="M 0.75 -0.265625 C 1 -0.046875 1.3125 0.078125 1.65625 0.078125 C 2.28125 0.078125 3.046875 -0.15625 3.046875 -1.046875 L 3.046875 -1.109375 C 3.015625 -1.59375 2.625 -1.9375 2.1875 -2.078125 C 1.734375 -2.21875 0.703125 -2.171875 0.703125 -2.78125 C 0.703125 -3.25 1.3125 -3.359375 1.65625 -3.359375 C 2.140625 -3.359375 2.53125 -3.109375 2.59375 -2.546875 C 2.59375 -2.484375 2.59375 -2.40625 2.703125 -2.40625 C 2.8125 -2.40625 2.84375 -2.484375 2.84375 -2.578125 C 2.84375 -2.625 2.84375 -2.671875 2.84375 -2.71875 L 2.84375 -3.4375 C 2.84375 -3.5 2.796875 -3.546875 2.71875 -3.546875 C 2.578125 -3.546875 2.515625 -3.359375 2.421875 -3.359375 L 2.40625 -3.359375 C 2.28125 -3.40625 2.171875 -3.484375 2.03125 -3.515625 C 1.90625 -3.53125 1.796875 -3.546875 1.671875 -3.546875 C 1.09375 -3.546875 0.28125 -3.390625 0.28125 -2.546875 L 0.28125 -2.484375 C 0.296875 -2.203125 0.484375 -2 0.703125 -1.828125 C 1.328125 -1.421875 2.53125 -1.6875 2.625 -0.875 C 2.625 -0.3125 2.125 -0.15625 1.6875 -0.15625 C 1.078125 -0.15625 0.65625 -0.578125 0.5625 -1.125 C 0.53125 -1.21875 0.53125 -1.328125 0.40625 -1.328125 C 0.28125 -1.328125 0.28125 -1.25 0.28125 -1.171875 L 0.28125 -0.203125 C 0.28125 -0.171875 0.265625 -0.125 0.265625 -0.09375 C 0.265625 -0.015625 0.296875 0.078125 0.375 0.078125 C 0.453125 0.078125 0.53125 -0.015625 0.5625 -0.0625 L 0.609375 -0.109375 C 0.65625 -0.171875 0.703125 -0.21875 0.75 -0.265625 Z M 0.75 -0.265625 "/>
</g>
<g id="glyph-5-11">
<path d="M 0.9375 -3.4375 L 0.28125 -3.4375 L 0.28125 -3.171875 L 0.9375 -3.171875 L 0.9375 -0.5625 C 0.9375 -0.28125 0.6875 -0.265625 0.4375 -0.265625 L 0.328125 -0.265625 L 0.328125 -0.015625 L 0.8125 -0.03125 L 1.71875 -0.03125 L 2.28125 -0.015625 L 2.28125 -0.265625 L 2.03125 -0.265625 C 1.703125 -0.265625 1.515625 -0.296875 1.515625 -0.625 L 1.515625 -3.171875 L 2.484375 -3.171875 L 2.484375 -3.4375 L 1.5 -3.4375 L 1.5 -4.171875 C 1.5 -4.6875 1.65625 -5.390625 2.25 -5.390625 C 2.3125 -5.390625 2.40625 -5.375 2.46875 -5.359375 C 2.34375 -5.296875 2.28125 -5.15625 2.28125 -5.03125 C 2.28125 -4.84375 2.4375 -4.671875 2.640625 -4.671875 C 2.875 -4.671875 3.015625 -4.859375 3.015625 -5.046875 C 3.015625 -5.4375 2.59375 -5.625 2.265625 -5.625 C 1.515625 -5.625 0.9375 -5.078125 0.9375 -4.265625 Z M 0.9375 -3.4375 "/>
</g>
<g id="glyph-5-12">
<path d="M 1.984375 -3.546875 C 1.078125 -3.453125 0.234375 -2.796875 0.234375 -1.671875 C 0.234375 -0.59375 1.21875 0.078125 2.140625 0.078125 C 3.0625 0.078125 4 -0.640625 4 -1.6875 C 4 -2.71875 3.140625 -3.546875 2.09375 -3.546875 Z M 0.9375 -1.546875 C 0.9375 -1.609375 0.9375 -1.6875 0.9375 -1.75 C 0.9375 -2.171875 0.96875 -2.71875 1.3125 -3.03125 C 1.53125 -3.234375 1.828125 -3.328125 2.125 -3.328125 C 2.9375 -3.328125 3.28125 -2.65625 3.28125 -1.828125 C 3.28125 -1.390625 3.265625 -0.90625 2.96875 -0.546875 C 2.75 -0.296875 2.4375 -0.171875 2.109375 -0.171875 C 1.515625 -0.171875 1.0625 -0.59375 0.96875 -1.21875 C 0.953125 -1.328125 0.953125 -1.4375 0.9375 -1.546875 Z M 0.9375 -1.546875 "/>
</g>
<g id="glyph-5-13">
<path d="M 2.921875 -3.171875 C 2.765625 -3.109375 2.671875 -2.984375 2.671875 -2.828125 C 2.671875 -2.59375 2.84375 -2.453125 3.09375 -2.453125 C 3.3125 -2.453125 3.421875 -2.65625 3.421875 -2.828125 C 3.421875 -3.40625 2.734375 -3.515625 2.25 -3.546875 L 2.15625 -3.546875 C 1.125 -3.546875 0.28125 -2.75 0.28125 -1.71875 C 0.28125 -0.734375 1.109375 0.078125 2.125 0.078125 C 2.6875 0.078125 3.234375 -0.21875 3.453125 -0.765625 C 3.46875 -0.828125 3.515625 -0.890625 3.515625 -0.953125 C 3.515625 -1.03125 3.46875 -1.0625 3.40625 -1.0625 C 3.25 -1.0625 3.28125 -0.890625 3.171875 -0.75 C 2.984375 -0.390625 2.625 -0.171875 2.21875 -0.171875 C 1.390625 -0.171875 0.984375 -0.953125 0.984375 -1.765625 C 0.984375 -2.40625 1.25 -3.3125 2.171875 -3.3125 C 2.390625 -3.3125 2.703125 -3.296875 2.921875 -3.171875 Z M 2.921875 -3.171875 "/>
</g>
<g id="glyph-5-14">
<path d="M 0.984375 -0.390625 C 1.515625 0.015625 1.9375 0.15625 2.59375 0.15625 C 3.46875 0.15625 4.21875 -0.578125 4.21875 -1.484375 C 4.21875 -2.171875 3.78125 -2.8125 3.109375 -3.03125 C 2.796875 -3.140625 2.46875 -3.1875 2.140625 -3.265625 C 1.9375 -3.3125 1.734375 -3.34375 1.546875 -3.4375 C 1.21875 -3.625 0.96875 -3.96875 0.96875 -4.34375 C 0.96875 -4.984375 1.578125 -5.375 2.15625 -5.375 C 2.984375 -5.375 3.625 -4.78125 3.734375 -3.8125 C 3.734375 -3.71875 3.765625 -3.640625 3.875 -3.640625 C 4 -3.640625 4 -3.71875 4 -3.796875 L 4 -5.484375 C 4 -5.53125 3.96875 -5.625 3.890625 -5.625 C 3.78125 -5.625 3.6875 -5.421875 3.625 -5.3125 C 3.578125 -5.234375 3.515625 -5.140625 3.46875 -5.0625 C 3.109375 -5.421875 2.671875 -5.625 2.15625 -5.625 C 1.375 -5.625 0.46875 -5.09375 0.46875 -4.09375 C 0.46875 -3.453125 0.875 -2.921875 1.453125 -2.6875 C 1.78125 -2.5625 2.15625 -2.5 2.5 -2.421875 C 2.6875 -2.375 2.890625 -2.34375 3.078125 -2.25 C 3.4375 -2.078125 3.71875 -1.6875 3.71875 -1.28125 C 3.71875 -0.625 3.21875 -0.109375 2.546875 -0.109375 C 1.765625 -0.109375 0.90625 -0.46875 0.734375 -1.421875 C 0.71875 -1.484375 0.71875 -1.5625 0.71875 -1.640625 L 0.71875 -1.6875 C 0.71875 -1.765625 0.671875 -1.8125 0.59375 -1.8125 C 0.484375 -1.8125 0.46875 -1.734375 0.46875 -1.65625 L 0.46875 0.03125 C 0.46875 0.078125 0.484375 0.15625 0.578125 0.15625 C 0.671875 0.15625 0.890625 -0.1875 0.984375 -0.390625 Z M 0.984375 -0.390625 "/>
</g>
<g id="glyph-5-15">
<path d="M 0.3125 -3.421875 L 0.3125 -3.15625 L 0.421875 -3.15625 C 0.625 -3.15625 0.875 -3.140625 0.90625 -2.921875 C 0.921875 -2.84375 0.921875 -2.75 0.921875 -2.671875 L 0.921875 -1.09375 C 0.921875 -0.859375 0.9375 -0.625 1.046875 -0.421875 C 1.28125 -0.03125 1.78125 0.078125 2.171875 0.078125 C 2.546875 0.078125 2.890625 -0.046875 3.109375 -0.328125 C 3.171875 -0.390625 3.25 -0.484375 3.28125 -0.578125 L 3.296875 0.078125 L 4.484375 -0.015625 L 4.484375 -0.265625 L 4.328125 -0.265625 C 4.109375 -0.265625 3.875 -0.296875 3.875 -0.65625 L 3.875 -3.515625 L 2.65625 -3.421875 L 2.65625 -3.15625 L 2.75 -3.15625 C 3.03125 -3.15625 3.265625 -3.140625 3.265625 -2.765625 L 3.265625 -1.40625 C 3.265625 -0.765625 2.921875 -0.15625 2.234375 -0.15625 C 1.953125 -0.15625 1.59375 -0.21875 1.546875 -0.625 C 1.53125 -0.765625 1.53125 -0.921875 1.53125 -1.0625 L 1.53125 -3.515625 Z M 0.3125 -3.421875 "/>
</g>
<g id="glyph-5-16">
<path d="M 0.171875 -3.4375 L 0.171875 -3.171875 L 0.296875 -3.171875 C 0.5625 -3.171875 0.703125 -3.109375 0.84375 -2.828125 L 1.015625 -2.421875 C 1.34375 -1.703125 1.671875 -0.96875 1.984375 -0.25 L 2.0625 -0.09375 C 2.078125 -0.078125 2.078125 -0.046875 2.078125 -0.015625 L 2.078125 0.015625 C 2.078125 0.0625 2.046875 0.109375 2.015625 0.15625 L 1.890625 0.4375 C 1.71875 0.84375 1.46875 1.390625 0.9375 1.390625 C 0.828125 1.390625 0.703125 1.34375 0.609375 1.296875 C 0.734375 1.25 0.859375 1.15625 0.859375 0.953125 C 0.859375 0.75 0.6875 0.625 0.515625 0.625 C 0.3125 0.625 0.171875 0.78125 0.171875 0.96875 C 0.171875 1.390625 0.59375 1.625 0.9375 1.625 C 1.5625 1.625 1.90625 1.03125 2.140625 0.515625 L 2.34375 0.03125 C 2.71875 -0.8125 3.078125 -1.65625 3.46875 -2.46875 C 3.609375 -2.78125 3.765625 -3.171875 4.28125 -3.171875 L 4.28125 -3.4375 L 3.953125 -3.40625 L 3.375 -3.40625 L 2.96875 -3.4375 L 2.96875 -3.171875 C 3.203125 -3.171875 3.3125 -3 3.3125 -2.84375 C 3.3125 -2.6875 3.21875 -2.546875 3.15625 -2.40625 L 2.59375 -1.140625 C 2.53125 -1 2.484375 -0.875 2.421875 -0.734375 C 2.34375 -0.921875 2.25 -1.109375 2.15625 -1.3125 L 1.5 -2.78125 C 1.484375 -2.84375 1.453125 -2.90625 1.453125 -2.96875 L 1.453125 -3 C 1.46875 -3.171875 1.71875 -3.171875 1.859375 -3.171875 L 1.859375 -3.4375 L 1.359375 -3.40625 L 0.59375 -3.40625 Z M 0.171875 -3.4375 "/>
</g>
<g id="glyph-5-17">
<path d="M 1.234375 -4.90625 C 1.234375 -4.34375 0.96875 -3.390625 0.15625 -3.390625 L 0.15625 -3.171875 L 0.875 -3.171875 L 0.875 -1.109375 C 0.875 -0.859375 0.890625 -0.609375 1.015625 -0.375 C 1.21875 -0.0625 1.609375 0.078125 1.96875 0.078125 C 2.640625 0.078125 2.8125 -0.640625 2.8125 -1.15625 L 2.8125 -1.453125 L 2.5625 -1.453125 C 2.5625 -1.34375 2.578125 -1.234375 2.578125 -1.109375 C 2.578125 -0.765625 2.484375 -0.171875 2.015625 -0.171875 C 1.578125 -0.171875 1.484375 -0.640625 1.484375 -1.03125 L 1.484375 -3.171875 L 2.671875 -3.171875 L 2.671875 -3.4375 L 1.484375 -3.4375 L 1.484375 -4.90625 Z M 1.234375 -4.90625 "/>
</g>
<g id="glyph-5-18">
<path d="M 0.265625 -5.453125 L 0.265625 -5.1875 L 0.421875 -5.1875 C 0.671875 -5.1875 0.875 -5.15625 0.875 -4.796875 L 0.875 -0.78125 C 0.875 -0.734375 0.890625 -0.671875 0.890625 -0.609375 C 0.890625 -0.28125 0.640625 -0.265625 0.3125 -0.265625 L 0.265625 -0.265625 L 0.265625 -0.015625 L 0.734375 -0.03125 L 1.546875 -0.03125 L 2.046875 -0.015625 L 2.046875 -0.265625 L 1.875 -0.265625 C 1.640625 -0.265625 1.4375 -0.296875 1.4375 -0.59375 L 1.4375 -1.3125 C 1.4375 -1.4375 1.53125 -1.46875 1.609375 -1.546875 C 1.734375 -1.640625 1.859375 -1.75 1.984375 -1.84375 C 2.0625 -1.703125 2.171875 -1.578125 2.265625 -1.46875 C 2.515625 -1.140625 2.984375 -0.65625 2.984375 -0.4375 C 2.984375 -0.3125 2.875 -0.265625 2.734375 -0.265625 L 2.734375 -0.015625 L 3.25 -0.03125 L 3.953125 -0.03125 L 4.328125 -0.015625 L 4.328125 -0.265625 C 3.84375 -0.265625 3.671875 -0.53125 3.3125 -1 C 3.015625 -1.390625 2.671875 -1.78125 2.40625 -2.1875 C 2.53125 -2.25 2.65625 -2.375 2.765625 -2.46875 C 3.15625 -2.78125 3.609375 -3.171875 4.140625 -3.171875 L 4.140625 -3.4375 L 3.859375 -3.40625 L 3.171875 -3.40625 L 2.65625 -3.4375 L 2.65625 -3.171875 C 2.75 -3.171875 2.84375 -3.09375 2.84375 -3 C 2.84375 -2.75 2.4375 -2.515625 2.203125 -2.34375 C 1.953125 -2.140625 1.71875 -1.9375 1.46875 -1.75 L 1.46875 -5.53125 Z M 0.265625 -5.453125 "/>
</g>
<g id="glyph-5-19">
<path d="M 0.34375 -5.453125 L 0.34375 -5.1875 C 0.546875 -5.1875 0.734375 -5.1875 0.9375 -5.171875 L 1.078125 -5.140625 C 1.140625 -5.125 1.15625 -5.109375 1.15625 -5.046875 L 1.15625 -0.875 C 1.15625 -0.3125 0.703125 -0.265625 0.34375 -0.265625 L 0.34375 -0.015625 L 0.875 -0.03125 L 1.734375 -0.03125 L 2.234375 -0.015625 L 2.234375 -0.265625 C 1.875 -0.265625 1.421875 -0.328125 1.421875 -0.875 C 1.421875 -0.9375 1.421875 -1 1.421875 -1.0625 L 1.421875 -4.921875 C 1.75 -4.515625 2.046875 -4.078125 2.34375 -3.65625 L 4.1875 -1.09375 C 4.40625 -0.78125 4.609375 -0.5 4.828125 -0.1875 C 4.890625 -0.109375 4.9375 -0.015625 5.046875 -0.015625 L 5.078125 -0.015625 C 5.171875 -0.046875 5.171875 -0.09375 5.171875 -0.15625 L 5.171875 -4.609375 C 5.171875 -5.140625 5.640625 -5.1875 5.984375 -5.1875 L 5.984375 -5.453125 L 5.484375 -5.421875 L 4.625 -5.421875 L 4.109375 -5.453125 L 4.109375 -5.1875 C 4.453125 -5.1875 4.90625 -5.140625 4.90625 -4.609375 L 4.90625 -1.203125 L 1.9375 -5.328125 L 1.84375 -5.4375 L 1.6875 -5.453125 Z M 0.34375 -5.453125 "/>
</g>
<g id="glyph-5-20">
<path d="M 0.328125 -5.453125 L 0.328125 -5.1875 L 0.4375 -5.1875 C 0.6875 -5.1875 0.9375 -5.171875 0.9375 -4.765625 L 0.9375 -0.78125 C 0.9375 -0.71875 0.9375 -0.671875 0.9375 -0.609375 C 0.9375 -0.28125 0.6875 -0.265625 0.40625 -0.265625 L 0.328125 -0.265625 L 0.328125 -0.015625 L 0.8125 -0.03125 L 1.640625 -0.03125 L 2.125 -0.015625 L 2.125 -0.265625 L 1.9375 -0.265625 C 1.71875 -0.265625 1.515625 -0.296875 1.515625 -0.578125 L 1.515625 -5.53125 Z M 0.328125 -5.453125 "/>
</g>
<g id="glyph-5-21">
<path d="M 0.453125 -3.4375 L 0.34375 -2.109375 L 0.59375 -2.109375 C 0.625 -2.609375 0.71875 -3.140625 1.421875 -3.203125 C 1.59375 -3.21875 1.78125 -3.21875 1.953125 -3.21875 L 2.609375 -3.21875 C 1.828125 -2.265625 1.0625 -1.28125 0.3125 -0.328125 C 0.28125 -0.265625 0.21875 -0.203125 0.21875 -0.140625 C 0.21875 -0.046875 0.296875 -0.015625 0.375 -0.015625 L 3.265625 -0.015625 L 3.40625 -1.546875 L 3.15625 -1.546875 C 3.109375 -0.984375 3.0625 -0.359375 2.234375 -0.265625 C 2.0625 -0.25 1.875 -0.25 1.6875 -0.25 L 1 -0.25 C 1.765625 -1.21875 2.53125 -2.171875 3.28125 -3.125 C 3.328125 -3.171875 3.375 -3.25 3.375 -3.3125 C 3.375 -3.421875 3.28125 -3.4375 3.203125 -3.4375 Z M 0.453125 -3.4375 "/>
</g>
<g id="glyph-5-22">
<path d="M 0.875 -3.4375 L 0.21875 -3.4375 L 0.21875 -3.171875 L 0.875 -3.171875 L 0.875 -0.5625 C 0.875 -0.28125 0.640625 -0.265625 0.375 -0.265625 L 0.265625 -0.265625 L 0.265625 -0.015625 L 0.75 -0.03125 L 1.578125 -0.03125 L 2.078125 -0.015625 L 2.078125 -0.265625 L 1.921875 -0.265625 C 1.6875 -0.265625 1.46875 -0.296875 1.46875 -0.5625 L 1.46875 -3.171875 L 3.234375 -3.171875 L 3.234375 -0.5625 C 3.234375 -0.28125 2.984375 -0.265625 2.734375 -0.265625 L 2.625 -0.265625 L 2.625 -0.015625 L 3.09375 -0.03125 L 3.921875 -0.03125 L 4.421875 -0.015625 L 4.421875 -0.265625 L 4.234375 -0.265625 C 4.015625 -0.265625 3.8125 -0.296875 3.8125 -0.578125 L 3.8125 -5.53125 C 3.71875 -5.53125 3.625 -5.5 3.515625 -5.5 L 3.484375 -5.5 C 3.40625 -5.5 3.34375 -5.546875 3.265625 -5.5625 C 3.125 -5.59375 3 -5.609375 2.859375 -5.625 L 2.71875 -5.625 C 1.90625 -5.625 0.875 -5.234375 0.875 -4.296875 Z M 3.234375 -3.4375 L 1.4375 -3.4375 L 1.4375 -4.25 C 1.4375 -4.96875 2 -5.359375 2.609375 -5.390625 L 2.671875 -5.390625 C 2.84375 -5.390625 3.03125 -5.375 3.203125 -5.34375 C 3.109375 -5.25 3.046875 -5.171875 3.046875 -5.03125 C 3.046875 -4.859375 3.203125 -4.78125 3.234375 -4.671875 C 3.234375 -4.625 3.234375 -4.59375 3.234375 -4.546875 C 3.234375 -4.453125 3.234375 -4.34375 3.234375 -4.265625 Z M 3.234375 -3.4375 "/>
</g>
<g id="glyph-5-23">
<path d="M 0.171875 -3.4375 L 0.171875 -3.171875 L 0.28125 -3.171875 C 0.703125 -3.171875 0.734375 -2.921875 0.9375 -2.375 C 1.21875 -1.640625 1.5 -0.890625 1.796875 -0.140625 C 1.828125 -0.0625 1.859375 0.0625 1.96875 0.078125 L 1.984375 0.078125 C 2.171875 0.078125 2.203125 -0.109375 2.25 -0.234375 L 2.421875 -0.671875 C 2.59375 -1.109375 2.75 -1.5625 2.9375 -2.015625 C 2.96875 -2.109375 3 -2.21875 3.046875 -2.328125 C 3.296875 -1.796875 3.46875 -1.21875 3.6875 -0.671875 L 3.84375 -0.234375 C 3.890625 -0.109375 3.9375 0.078125 4.109375 0.078125 L 4.140625 0.078125 C 4.234375 0.0625 4.28125 -0.046875 4.3125 -0.140625 C 4.609375 -0.953125 4.921875 -1.75 5.234375 -2.546875 C 5.34375 -2.859375 5.515625 -3.171875 5.9375 -3.171875 L 5.9375 -3.4375 L 4.59375 -3.4375 L 4.59375 -3.171875 C 4.8125 -3.15625 5.015625 -3.046875 5.03125 -2.828125 C 5.03125 -2.625 4.890625 -2.375 4.828125 -2.1875 C 4.640625 -1.75 4.46875 -1.296875 4.3125 -0.84375 C 4.28125 -0.765625 4.25 -0.703125 4.234375 -0.640625 C 4.1875 -0.828125 4.09375 -1.015625 4.03125 -1.203125 C 3.828125 -1.734375 3.625 -2.25 3.421875 -2.765625 C 3.40625 -2.828125 3.375 -2.890625 3.375 -2.953125 C 3.375 -3.171875 3.671875 -3.171875 3.8125 -3.171875 L 3.8125 -3.4375 L 3.34375 -3.40625 L 2.625 -3.40625 L 2.265625 -3.4375 L 2.265625 -3.171875 L 2.359375 -3.171875 C 2.609375 -3.171875 2.71875 -3.140625 2.859375 -2.859375 C 2.875 -2.796875 2.90625 -2.734375 2.90625 -2.671875 C 2.890625 -2.515625 2.78125 -2.3125 2.703125 -2.140625 C 2.59375 -1.828125 2.484375 -1.515625 2.359375 -1.21875 C 2.296875 -1.0625 2.234375 -0.90625 2.1875 -0.75 C 2.140625 -0.9375 2.0625 -1.109375 1.984375 -1.28125 C 1.8125 -1.78125 1.625 -2.28125 1.421875 -2.78125 C 1.390625 -2.84375 1.375 -2.90625 1.375 -2.96875 L 1.375 -3 C 1.421875 -3.171875 1.671875 -3.171875 1.8125 -3.171875 L 1.8125 -3.4375 L 1.3125 -3.40625 L 0.5625 -3.40625 Z M 0.171875 -3.4375 "/>
</g>
<g id="glyph-5-24">
<path d="M 0.34375 -5.453125 L 0.34375 -5.1875 C 0.453125 -5.1875 0.546875 -5.203125 0.640625 -5.203125 C 0.921875 -5.203125 1.15625 -5.15625 1.15625 -4.84375 L 1.15625 -0.75 C 1.15625 -0.703125 1.15625 -0.640625 1.15625 -0.59375 C 1.15625 -0.296875 0.90625 -0.265625 0.640625 -0.265625 C 0.53125 -0.265625 0.4375 -0.265625 0.34375 -0.265625 L 0.34375 -0.015625 L 2.6875 -0.015625 L 2.6875 -0.265625 C 2.59375 -0.265625 2.484375 -0.265625 2.390625 -0.265625 C 2.125 -0.265625 1.890625 -0.3125 1.890625 -0.625 L 1.890625 -2.703125 L 4.453125 -2.703125 L 4.453125 -0.625 C 4.453125 -0.296875 4.171875 -0.265625 3.859375 -0.265625 L 3.640625 -0.265625 L 3.640625 -0.015625 L 5.984375 -0.015625 L 5.984375 -0.265625 C 5.890625 -0.265625 5.796875 -0.265625 5.703125 -0.265625 C 5.421875 -0.265625 5.171875 -0.296875 5.171875 -0.59375 C 5.171875 -0.640625 5.171875 -0.703125 5.171875 -0.75 L 5.171875 -4.84375 C 5.171875 -5.15625 5.4375 -5.203125 5.71875 -5.203125 C 5.8125 -5.203125 5.90625 -5.1875 5.984375 -5.1875 L 5.984375 -5.453125 L 3.640625 -5.453125 L 3.640625 -5.1875 C 3.734375 -5.1875 3.84375 -5.203125 3.9375 -5.203125 C 4.21875 -5.203125 4.453125 -5.140625 4.453125 -4.828125 L 4.453125 -2.96875 L 1.890625 -2.96875 L 1.890625 -4.828125 C 1.890625 -5.15625 2.15625 -5.1875 2.46875 -5.1875 L 2.6875 -5.1875 L 2.6875 -5.453125 Z M 0.34375 -5.453125 "/>
</g>
<g id="glyph-5-25">
<path d="M 0.265625 -3.421875 L 0.265625 -3.15625 L 0.390625 -3.15625 C 0.640625 -3.15625 0.875 -3.140625 0.875 -2.828125 L 0.875 0.953125 C 0.875 1.265625 0.65625 1.28125 0.265625 1.28125 L 0.265625 1.53125 L 0.75 1.515625 L 1.59375 1.515625 L 2.09375 1.53125 L 2.09375 1.28125 L 1.90625 1.28125 C 1.6875 1.28125 1.484375 1.25 1.484375 0.953125 L 1.5 -0.390625 C 1.671875 -0.09375 2.171875 0.078125 2.546875 0.078125 C 3.515625 0.078125 4.421875 -0.703125 4.421875 -1.71875 C 4.421875 -2.609375 3.703125 -3.515625 2.671875 -3.515625 C 2.21875 -3.515625 1.796875 -3.359375 1.46875 -3.03125 L 1.46875 -3.515625 Z M 3.703125 -1.59375 C 3.671875 -0.953125 3.25 -0.15625 2.46875 -0.15625 C 2.0625 -0.15625 1.484375 -0.546875 1.484375 -0.90625 L 1.484375 -2.171875 C 1.484375 -2.265625 1.484375 -2.359375 1.484375 -2.46875 C 1.484375 -2.921875 2.078125 -3.265625 2.546875 -3.265625 C 3.34375 -3.265625 3.703125 -2.34375 3.703125 -1.71875 C 3.703125 -1.6875 3.703125 -1.640625 3.703125 -1.59375 Z M 3.703125 -1.59375 "/>
</g>
<g id="glyph-6-0">
<path d="M 5.828125 -2.65625 C 5.9375 -2.65625 6.109375 -2.65625 6.109375 -2.84375 C 6.109375 -3.015625 5.90625 -3.015625 5.796875 -3.015625 L 0.78125 -3.015625 C 0.65625 -3.015625 0.46875 -3.015625 0.46875 -2.84375 C 0.46875 -2.65625 0.625 -2.65625 0.75 -2.65625 Z M 5.796875 -0.96875 C 5.90625 -0.96875 6.109375 -0.96875 6.109375 -1.140625 C 6.109375 -1.328125 5.9375 -1.328125 5.828125 -1.328125 L 0.75 -1.328125 C 0.625 -1.328125 0.46875 -1.328125 0.46875 -1.140625 C 0.46875 -0.96875 0.65625 -0.96875 0.78125 -0.96875 Z M 5.796875 -0.96875 "/>
</g>
<g id="glyph-6-1">
<path d="M 2.65625 1.984375 C 2.71875 1.984375 2.8125 1.984375 2.8125 1.890625 C 2.8125 1.859375 2.8125 1.859375 2.703125 1.75 C 1.609375 0.71875 1.34375 -0.75 1.34375 -1.984375 C 1.34375 -4.28125 2.28125 -5.359375 2.6875 -5.734375 C 2.8125 -5.828125 2.8125 -5.84375 2.8125 -5.875 C 2.8125 -5.921875 2.78125 -5.96875 2.703125 -5.96875 C 2.578125 -5.96875 2.171875 -5.5625 2.109375 -5.5 C 1.046875 -4.375 0.828125 -2.953125 0.828125 -1.984375 C 0.828125 -0.203125 1.5625 1.234375 2.65625 1.984375 Z M 2.65625 1.984375 "/>
</g>
<g id="glyph-6-2">
<path d="M 2.46875 -1.984375 C 2.46875 -2.75 2.328125 -3.65625 1.84375 -4.59375 C 1.453125 -5.328125 0.71875 -5.96875 0.578125 -5.96875 C 0.5 -5.96875 0.484375 -5.921875 0.484375 -5.875 C 0.484375 -5.84375 0.484375 -5.828125 0.578125 -5.734375 C 1.6875 -4.671875 1.9375 -3.21875 1.9375 -1.984375 C 1.9375 0.296875 1 1.375 0.59375 1.75 C 0.484375 1.84375 0.484375 1.859375 0.484375 1.890625 C 0.484375 1.9375 0.5 1.984375 0.578125 1.984375 C 0.703125 1.984375 1.109375 1.578125 1.171875 1.515625 C 2.234375 0.390625 2.46875 -1.03125 2.46875 -1.984375 Z M 2.46875 -1.984375 "/>
</g>
<g id="glyph-6-3">
<path d="M 3.140625 -5.5 C 3.09375 -5.640625 3.046875 -5.6875 2.9375 -5.6875 C 2.8125 -5.6875 2.765625 -5.640625 2.71875 -5.5 L 1.078125 -0.796875 C 0.953125 -0.4375 0.703125 -0.265625 0.28125 -0.265625 L 0.28125 0 C 0.53125 -0.03125 0.8125 -0.03125 1.03125 -0.03125 C 1.171875 -0.03125 1.546875 -0.03125 1.90625 0 L 1.90625 -0.265625 C 1.515625 -0.265625 1.328125 -0.46875 1.328125 -0.671875 C 1.328125 -0.703125 1.328125 -0.71875 1.375 -0.828125 L 2.6875 -4.578125 L 4.0625 -0.640625 C 4.109375 -0.546875 4.109375 -0.53125 4.109375 -0.5 C 4.109375 -0.265625 3.671875 -0.265625 3.453125 -0.265625 L 3.453125 0 C 4.140625 -0.03125 4.15625 -0.03125 4.578125 -0.03125 C 4.890625 -0.03125 5.234375 -0.03125 5.59375 0 L 5.59375 -0.265625 C 5.109375 -0.265625 4.96875 -0.265625 4.859375 -0.578125 Z M 3.140625 -5.5 "/>
</g>
<g id="glyph-7-0">
<path d="M 3.296875 9.15625 C 3.328125 9.1875 3.359375 9.203125 3.40625 9.203125 C 3.4375 9.203125 3.515625 9.1875 3.515625 9.09375 C 3.515625 9.078125 3.515625 9.046875 3.5 9.03125 C 3.0625 8.59375 1.90625 7.40625 1.90625 4.421875 C 1.90625 1.453125 3.03125 0.296875 3.5 -0.203125 C 3.515625 -0.21875 3.515625 -0.234375 3.515625 -0.265625 C 3.515625 -0.34375 3.4375 -0.359375 3.40625 -0.359375 C 3.328125 -0.359375 3.265625 -0.296875 3.078125 -0.140625 C 1.890625 0.921875 1.296875 2.59375 1.296875 4.421875 C 1.296875 6.265625 1.90625 7.921875 3.0625 8.953125 Z M 3.296875 9.15625 "/>
</g>
<g id="glyph-7-1">
<path d="M 0.578125 -0.3125 C 0.546875 -0.34375 0.515625 -0.359375 0.46875 -0.359375 C 0.34375 -0.359375 0.34375 -0.265625 0.34375 -0.265625 C 0.34375 -0.234375 0.34375 -0.21875 0.390625 -0.171875 C 0.84375 0.28125 1.953125 1.453125 1.953125 4.421875 C 1.953125 7.375 0.84375 8.546875 0.375 9.03125 C 0.359375 9.046875 0.34375 9.0625 0.34375 9.09375 C 0.34375 9.109375 0.34375 9.203125 0.46875 9.203125 C 0.546875 9.203125 0.609375 9.140625 0.78125 8.984375 C 1.96875 7.90625 2.578125 6.234375 2.578125 4.421875 C 2.578125 2.5625 1.953125 0.921875 0.8125 -0.125 Z M 0.578125 -0.3125 "/>
</g>
</g>
<clipPath id="clip-0">
<path clip-rule="nonzero" d="M 0 28 L 167.941406 28 L 167.941406 65 L 0 65 Z M 0 28 "/>
</clipPath>
<clipPath id="clip-1">
<path clip-rule="nonzero" d="M 0 89 L 167.941406 89 L 167.941406 127 L 0 127 Z M 0 89 "/>
</clipPath>
<clipPath id="clip-2">
<path clip-rule="nonzero" d="M 25 183 L 143 183 L 143 222.625 L 25 222.625 Z M 25 183 "/>
</clipPath>
</defs>
<path fill-rule="nonzero" fill="rgb(89.802551%, 81.959534%, 98.039246%)" fill-opacity="1" stroke-width="0.69739" stroke-linecap="butt" stroke-linejoin="miter" stroke="rgb(62.745667%, 37.255859%, 90.979004%)" stroke-opacity="1" stroke-miterlimit="10" d="M 5.764969 10.675062 L -5.766281 10.675062 C -7.9655 10.675062 -9.750656 8.889906 -9.750656 6.686781 L -9.750656 -2.348375 C -9.750656 -4.5515 -7.9655 -6.33275 -5.766281 -6.33275 L 5.764969 -6.33275 C 7.964187 -6.33275 9.749344 -4.5515 9.749344 -2.348375 L 9.749344 6.686781 C 9.749344 8.889906 7.964187 10.675062 5.764969 10.675062 Z M 5.764969 10.675062 " transform="matrix(1, 0, 0, -1, 39.028, 20.011)"/>
<g fill="rgb(0%, 0%, 0%)" fill-opacity="1">
<use xlink:href="#glyph-0-0" x="32.267" y="20.011"/>
</g>
<g fill="rgb(0%, 0%, 0%)" fill-opacity="1">
<use xlink:href="#glyph-1-0" x="38.816" y="21.118"/>
</g>
<path fill-rule="nonzero" fill="rgb(89.802551%, 81.959534%, 98.039246%)" fill-opacity="1" stroke-width="0.69739" stroke-linecap="butt" stroke-linejoin="miter" stroke="rgb(62.745667%, 37.255859%, 90.979004%)" stroke-opacity="1" stroke-miterlimit="10" d="M 5.764125 10.675062 L -5.763219 10.675062 C -7.966344 10.675062 -9.7515 8.889906 -9.7515 6.686781 L -9.7515 -2.348375 C -9.7515 -4.5515 -7.966344 -6.33275 -5.763219 -6.33275 L 5.764125 -6.33275 C 7.96725 -6.33275 9.7485 -4.5515 9.7485 -2.348375 L 9.7485 6.686781 C 9.7485 8.889906 7.96725 10.675062 5.764125 10.675062 Z M 5.764125 10.675062 " transform="matrix(1, 0, 0, -1, 70.564, 20.011)"/>
<g fill="rgb(0%, 0%, 0%)" fill-opacity="1">
<use xlink:href="#glyph-0-0" x="63.803" y="20.011"/>
</g>
<g fill="rgb(0%, 0%, 0%)" fill-opacity="1">
<use xlink:href="#glyph-1-1" x="70.352" y="21.118"/>
</g>
<g fill="rgb(0%, 0%, 0%)" fill-opacity="1">
<use xlink:href="#glyph-2-0" x="92.001" y="20.011"/>
</g>
<g fill="rgb(0%, 0%, 0%)" fill-opacity="1">
<use xlink:href="#glyph-2-0" x="95.763684" y="20.011"/>
</g>
<g fill="rgb(0%, 0%, 0%)" fill-opacity="1">
<use xlink:href="#glyph-2-0" x="99.526368" y="20.011"/>
</g>
<path fill-rule="nonzero" fill="rgb(89.802551%, 81.959534%, 98.039246%)" fill-opacity="1" stroke-width="0.69739" stroke-linecap="butt" stroke-linejoin="miter" stroke="rgb(62.745667%, 37.255859%, 90.979004%)" stroke-opacity="1" stroke-miterlimit="10" d="M 7.152687 10.557875 L -7.152 10.557875 C -9.351219 10.557875 -11.136375 8.772719 -11.136375 6.5735 L -11.136375 -2.465563 C -11.136375 -4.664781 -9.351219 -6.449938 -7.152 -6.449938 L 7.152687 -6.449938 C 9.351906 -6.449938 11.137062 -4.664781 11.137062 -2.465563 L 11.137062 6.5735 C 11.137062 8.772719 9.351906 10.557875 7.152687 10.557875 Z M 7.152687 10.557875 " transform="matrix(1, 0, 0, -1, 127.527, 20.011)"/>
<g fill="rgb(0%, 0%, 0%)" fill-opacity="1">
<use xlink:href="#glyph-0-0" x="119.379" y="20.011"/>
</g>
<g fill="rgb(0%, 0%, 0%)" fill-opacity="1">
<use xlink:href="#glyph-3-0" x="125.929" y="21.351"/>
</g>
<path fill-rule="nonzero" fill="rgb(71.763611%, 91.764832%, 95.292664%)" fill-opacity="1" stroke-width="0.69739" stroke-linecap="butt" stroke-linejoin="miter" stroke="rgb(12.548828%, 72.155762%, 83.921814%)" stroke-opacity="1" stroke-miterlimit="10" d="M 5.5345 10.67425 L -5.531906 10.67425 C -7.735031 10.67425 -9.520187 8.889094 -9.520187 6.689875 L -9.520187 -2.349188 C -9.520187 -4.548406 -7.735031 -6.333563 -5.531906 -6.333563 L 5.5345 -6.333563 C 7.733719 -6.333563 9.518875 -4.548406 9.518875 -2.349188 L 9.518875 6.689875 C 9.518875 8.889094 7.733719 10.67425 5.5345 10.67425 Z M 5.5345 10.67425 " transform="matrix(1, 0, 0, -1, 39.028, 77.518)"/>
<g fill="rgb(0%, 0%, 0%)" fill-opacity="1">
<use xlink:href="#glyph-0-1" x="32.498" y="77.518"/>
</g>
<g fill="rgb(0%, 0%, 0%)" fill-opacity="1">
<use xlink:href="#glyph-1-0" x="38.585" y="78.625"/>
</g>
<path fill-rule="nonzero" fill="rgb(71.763611%, 91.764832%, 95.292664%)" fill-opacity="1" stroke-width="0.69739" stroke-linecap="butt" stroke-linejoin="miter" stroke="rgb(12.548828%, 72.155762%, 83.921814%)" stroke-opacity="1" stroke-miterlimit="10" d="M 5.533656 10.67425 L -5.53275 10.67425 C -7.735875 10.67425 -9.517125 8.889094 -9.517125 6.689875 L -9.517125 -2.349188 C -9.517125 -4.548406 -7.735875 -6.333563 -5.53275 -6.333563 L 5.533656 -6.333563 C 7.732875 -6.333563 9.518031 -4.548406 9.518031 -2.349188 L 9.518031 6.689875 C 9.518031 8.889094 7.732875 10.67425 5.533656 10.67425 Z M 5.533656 10.67425 " transform="matrix(1, 0, 0, -1, 70.564, 77.518)"/>
<g fill="rgb(0%, 0%, 0%)" fill-opacity="1">
<use xlink:href="#glyph-0-1" x="64.034" y="77.518"/>
</g>
<g fill="rgb(0%, 0%, 0%)" fill-opacity="1">
<use xlink:href="#glyph-1-1" x="70.121" y="78.625"/>
</g>
<g fill="rgb(0%, 0%, 0%)" fill-opacity="1">
<use xlink:href="#glyph-2-0" x="92.001" y="77.518"/>
</g>
<g fill="rgb(0%, 0%, 0%)" fill-opacity="1">
<use xlink:href="#glyph-2-0" x="95.763684" y="77.518"/>
</g>
<g fill="rgb(0%, 0%, 0%)" fill-opacity="1">
<use xlink:href="#glyph-2-0" x="99.526368" y="77.518"/>
</g>
<path fill-rule="nonzero" fill="rgb(71.763611%, 91.764832%, 95.292664%)" fill-opacity="1" stroke-width="0.69739" stroke-linecap="butt" stroke-linejoin="miter" stroke="rgb(12.548828%, 72.155762%, 83.921814%)" stroke-opacity="1" stroke-miterlimit="10" d="M 6.918313 10.557062 L -6.921531 10.557062 C -9.12075 10.557062 -10.905906 8.771906 -10.905906 6.572687 L -10.905906 -2.466375 C -10.905906 -4.665594 -9.12075 -6.45075 -6.921531 -6.45075 L 6.918313 -6.45075 C 9.121438 -6.45075 10.906594 -4.665594 10.906594 -2.466375 L 10.906594 6.572687 C 10.906594 8.771906 9.121438 10.557062 6.918313 10.557062 Z M 6.918313 10.557062 " transform="matrix(1, 0, 0, -1, 127.527, 77.518)"/>
<g fill="rgb(0%, 0%, 0%)" fill-opacity="1">
<use xlink:href="#glyph-0-1" x="119.611" y="77.518"/>
</g>
<g fill="rgb(0%, 0%, 0%)" fill-opacity="1">
<use xlink:href="#glyph-3-0" x="125.697" y="78.857"/>
</g>
<path fill-rule="nonzero" fill="rgb(94.900513%, 84.313965%, 72.155762%)" fill-opacity="1" d="M 157.941406 38.089844 L 10.003906 38.089844 C 7.800781 38.089844 6.015625 39.875 6.015625 42.074219 L 6.015625 51.113281 C 6.015625 53.316406 7.800781 55.097656 10.003906 55.097656 L 157.941406 55.097656 C 160.140625 55.097656 161.925781 53.316406 161.925781 51.113281 L 161.925781 42.074219 C 161.925781 39.875 160.140625 38.089844 157.941406 38.089844 Z M 157.941406 38.089844 "/>
<g clip-path="url(#clip-0)">
<path fill="none" stroke-width="0.69739" stroke-linecap="butt" stroke-linejoin="miter" stroke="rgb(83.529663%, 54.116821%, 19.607544%)" stroke-opacity="1" stroke-miterlimit="10" d="M 73.970406 8.563156 L -73.967094 8.563156 C -76.170219 8.563156 -77.955375 6.778 -77.955375 4.578781 L -77.955375 -4.460281 C -77.955375 -6.663406 -76.170219 -8.444656 -73.967094 -8.444656 L 73.970406 -8.444656 C 76.169625 -8.444656 77.954781 -6.663406 77.954781 -4.460281 L 77.954781 4.578781 C 77.954781 6.778 76.169625 8.563156 73.970406 8.563156 Z M 73.970406 8.563156 " transform="matrix(1, 0, 0, -1, 83.971, 46.653)"/>
</g>
<g fill="rgb(0%, 0%, 0%)" fill-opacity="1">
<use xlink:href="#glyph-4-0" x="27.8" y="48.588"/>
<use xlink:href="#glyph-4-1" x="34.913314" y="48.588"/>
<use xlink:href="#glyph-4-2" x="37.376075" y="48.588"/>
<use xlink:href="#glyph-4-3" x="42.355794" y="48.588"/>
<use xlink:href="#glyph-4-4" x="47.566645" y="48.588"/>
</g>
<g fill="rgb(0%, 0%, 0%)" fill-opacity="1">
<use xlink:href="#glyph-5-0" x="55.55667" y="48.588"/>
<use xlink:href="#glyph-5-1" x="59.319354" y="48.588"/>
</g>
<g fill="rgb(0%, 0%, 0%)" fill-opacity="1">
<use xlink:href="#glyph-5-2" x="66.143354" y="48.588"/>
</g>
<g fill="rgb(0%, 0%, 0%)" fill-opacity="1">
<use xlink:href="#glyph-5-0" x="71.077643" y="48.588"/>
<use xlink:href="#glyph-5-3" x="74.840327" y="48.588"/>
<use xlink:href="#glyph-5-3" x="79.543483" y="48.588"/>
<use xlink:href="#glyph-5-4" x="84.246639" y="48.588"/>
<use xlink:href="#glyph-5-5" x="86.598616" y="48.588"/>
<use xlink:href="#glyph-5-6" x="91.301772" y="48.588"/>
</g>
<g fill="rgb(0%, 0%, 0%)" fill-opacity="1">
<use xlink:href="#glyph-0-1" x="98.356107" y="48.588"/>
</g>
<g fill="rgb(0%, 0%, 0%)" fill-opacity="1">
<use xlink:href="#glyph-3-1" x="104.444" y="49.803"/>
</g>
<g fill="rgb(0%, 0%, 0%)" fill-opacity="1">
<use xlink:href="#glyph-6-0" x="109.958" y="48.588"/>
</g>
<g fill="rgb(0%, 0%, 0%)" fill-opacity="1">
<use xlink:href="#glyph-2-1" x="118.89567" y="48.588"/>
</g>
<g fill="rgb(0%, 0%, 0%)" fill-opacity="1">
<use xlink:href="#glyph-6-1" x="123.84032" y="48.588"/>
</g>
<g fill="rgb(0%, 0%, 0%)" fill-opacity="1">
<use xlink:href="#glyph-0-0" x="127.133565" y="48.588"/>
</g>
<g fill="rgb(0%, 0%, 0%)" fill-opacity="1">
<use xlink:href="#glyph-3-1" x="133.687" y="49.803"/>
</g>
<g fill="rgb(0%, 0%, 0%)" fill-opacity="1">
<use xlink:href="#glyph-6-2" x="136.848" y="48.588"/>
</g>
<path fill-rule="nonzero" fill="rgb(94.900513%, 84.313965%, 72.155762%)" fill-opacity="1" d="M 157.941406 99.671875 L 10.003906 99.671875 C 7.800781 99.671875 6.015625 101.457031 6.015625 103.660156 L 6.015625 112.695312 C 6.015625 114.898438 7.800781 116.679688 10.003906 116.679688 L 157.941406 116.679688 C 160.140625 116.679688 161.925781 114.898438 161.925781 112.695312 L 161.925781 103.660156 C 161.925781 101.457031 160.140625 99.671875 157.941406 99.671875 Z M 157.941406 99.671875 "/>
<g clip-path="url(#clip-1)">
<path fill="none" stroke-width="0.69739" stroke-linecap="butt" stroke-linejoin="miter" stroke="rgb(83.529663%, 54.116821%, 19.607544%)" stroke-opacity="1" stroke-miterlimit="10" d="M 73.970406 -53.018875 L -73.967094 -53.018875 C -76.170219 -53.018875 -77.955375 -54.804031 -77.955375 -57.007156 L -77.955375 -66.042313 C -77.955375 -68.245438 -76.170219 -70.026688 -73.967094 -70.026688 L 73.970406 -70.026688 C 76.169625 -70.026688 77.954781 -68.245438 77.954781 -66.042313 L 77.954781 -57.007156 C 77.954781 -54.804031 76.169625 -53.018875 73.970406 -53.018875 Z M 73.970406 -53.018875 " transform="matrix(1, 0, 0, -1, 83.971, 46.653)"/>
</g>
<g fill="rgb(0%, 0%, 0%)" fill-opacity="1">
<use xlink:href="#glyph-5-7" x="45.718" y="110.921"/>
</g>
<g fill="rgb(0%, 0%, 0%)" fill-opacity="1">
<use xlink:href="#glyph-5-8" x="51.123322" y="110.921"/>
<use xlink:href="#glyph-5-9" x="54.422943" y="110.921"/>
<use xlink:href="#glyph-5-5" x="58.655863" y="110.921"/>
<use xlink:href="#glyph-5-10" x="63.359019" y="110.921"/>
<use xlink:href="#glyph-5-11" x="66.698491" y="110.921"/>
<use xlink:href="#glyph-5-12" x="69.285586" y="110.921"/>
<use xlink:href="#glyph-5-8" x="73.518506" y="110.921"/>
<use xlink:href="#glyph-5-1" x="76.818127" y="110.921"/>
<use xlink:href="#glyph-5-0" x="83.87326" y="110.921"/>
<use xlink:href="#glyph-5-8" x="87.635944" y="110.921"/>
</g>
<g fill="rgb(0%, 0%, 0%)" fill-opacity="1">
<use xlink:href="#glyph-5-0" x="93.756981" y="110.921"/>
<use xlink:href="#glyph-5-5" x="97.519665" y="110.921"/>
</g>
<g fill="rgb(0%, 0%, 0%)" fill-opacity="1">
<use xlink:href="#glyph-5-13" x="102.230791" y="110.921"/>
<use xlink:href="#glyph-5-12" x="105.993475" y="110.921"/>
</g>
<g fill="rgb(0%, 0%, 0%)" fill-opacity="1">
<use xlink:href="#glyph-5-3" x="110.457528" y="110.921"/>
<use xlink:href="#glyph-5-0" x="115.160684" y="110.921"/>
<use xlink:href="#glyph-5-8" x="118.923369" y="110.921"/>
</g>
<path fill="none" stroke-width="0.69739" stroke-linecap="butt" stroke-linejoin="miter" stroke="rgb(29.998779%, 29.998779%, 29.998779%)" stroke-opacity="1" stroke-miterlimit="10" d="M -44.943656 19.957687 L -44.943656 12.238937 " transform="matrix(1, 0, 0, -1, 83.971, 46.653)"/>
<path fill-rule="nonzero" fill="rgb(29.998779%, 29.998779%, 29.998779%)" fill-opacity="1" stroke-width="0.69739" stroke-linecap="butt" stroke-linejoin="miter" stroke="rgb(29.998779%, 29.998779%, 29.998779%)" stroke-opacity="1" stroke-miterlimit="10" d="M 1.890118 -0.00037625 C 1.659649 0.0582175 0.636211 0.401967 -0.0005075 0.773061 L -0.0005075 -0.769908 C 0.636211 -0.398814 1.659649 -0.05897 1.890118 -0.00037625 Z M 1.890118 -0.00037625 " transform="matrix(0, 1, 1, 0, 39.02772, 34.41457)"/>
<path fill="none" stroke-width="0.69739" stroke-linecap="butt" stroke-linejoin="miter" stroke="rgb(29.998779%, 29.998779%, 29.998779%)" stroke-opacity="1" stroke-miterlimit="10" d="M -44.943656 -8.796219 L -44.943656 -16.514969 " transform="matrix(1, 0, 0, -1, 83.971, 46.653)"/>
<path fill-rule="nonzero" fill="rgb(29.998779%, 29.998779%, 29.998779%)" fill-opacity="1" stroke-width="0.69739" stroke-linecap="butt" stroke-linejoin="miter" stroke="rgb(29.998779%, 29.998779%, 29.998779%)" stroke-opacity="1" stroke-miterlimit="10" d="M 1.890424 -0.00037625 C 1.656049 0.0582175 0.636518 0.401967 -0.00020125 0.773061 L -0.00020125 -0.769908 C 0.636518 -0.398814 1.656049 -0.05897 1.890424 -0.00037625 Z M 1.890424 -0.00037625 " transform="matrix(0, 1, 1, 0, 39.02772, 63.16817)"/>
<path fill="none" stroke-width="0.69739" stroke-linecap="butt" stroke-linejoin="miter" stroke="rgb(29.998779%, 29.998779%, 29.998779%)" stroke-opacity="1" stroke-miterlimit="10" d="M -44.943656 -37.550125 L -44.943656 -49.343094 " transform="matrix(1, 0, 0, -1, 83.971, 46.653)"/>
<path fill-rule="nonzero" fill="rgb(29.998779%, 29.998779%, 29.998779%)" fill-opacity="1" stroke-width="0.69739" stroke-linecap="butt" stroke-linejoin="miter" stroke="rgb(29.998779%, 29.998779%, 29.998779%)" stroke-opacity="1" stroke-miterlimit="10" d="M 1.889709 -0.00037625 C 1.65924 0.0582175 0.635803 0.401967 -0.00091625 0.773061 L -0.00091625 -0.769908 C 0.635803 -0.398814 1.65924 -0.05897 1.889709 -0.00037625 Z M 1.889709 -0.00037625 " transform="matrix(0, 1, 1, 0, 39.02772, 95.99701)"/>
<path fill="none" stroke-width="0.69739" stroke-linecap="butt" stroke-linejoin="miter" stroke="rgb(29.998779%, 29.998779%, 29.998779%)" stroke-opacity="1" stroke-miterlimit="10" d="M -13.4085 19.957687 L -13.4085 12.238937 " transform="matrix(1, 0, 0, -1, 83.971, 46.653)"/>
<path fill-rule="nonzero" fill="rgb(29.998779%, 29.998779%, 29.998779%)" fill-opacity="1" stroke-width="0.69739" stroke-linecap="butt" stroke-linejoin="miter" stroke="rgb(29.998779%, 29.998779%, 29.998779%)" stroke-opacity="1" stroke-miterlimit="10" d="M 1.890118 -0.00167 C 1.659649 0.06083 0.636211 0.400674 -0.0005075 0.771767 L -0.0005075 -0.771201 C 0.636211 -0.400108 1.659649 -0.0602638 1.890118 -0.00167 Z M 1.890118 -0.00167 " transform="matrix(0, 1, 1, 0, 70.56417, 34.41457)"/>
<path fill="none" stroke-width="0.69739" stroke-linecap="butt" stroke-linejoin="miter" stroke="rgb(29.998779%, 29.998779%, 29.998779%)" stroke-opacity="1" stroke-miterlimit="10" d="M -13.4085 -8.796219 L -13.4085 -16.514969 " transform="matrix(1, 0, 0, -1, 83.971, 46.653)"/>
<path fill-rule="nonzero" fill="rgb(29.998779%, 29.998779%, 29.998779%)" fill-opacity="1" stroke-width="0.69739" stroke-linecap="butt" stroke-linejoin="miter" stroke="rgb(29.998779%, 29.998779%, 29.998779%)" stroke-opacity="1" stroke-miterlimit="10" d="M 1.890424 -0.00167 C 1.656049 0.06083 0.636518 0.400674 -0.00020125 0.771767 L -0.00020125 -0.771201 C 0.636518 -0.400108 1.656049 -0.0602638 1.890424 -0.00167 Z M 1.890424 -0.00167 " transform="matrix(0, 1, 1, 0, 70.56417, 63.16817)"/>
<path fill="none" stroke-width="0.69739" stroke-linecap="butt" stroke-linejoin="miter" stroke="rgb(29.998779%, 29.998779%, 29.998779%)" stroke-opacity="1" stroke-miterlimit="10" d="M -13.4085 -37.550125 L -13.4085 -49.343094 " transform="matrix(1, 0, 0, -1, 83.971, 46.653)"/>
<path fill-rule="nonzero" fill="rgb(29.998779%, 29.998779%, 29.998779%)" fill-opacity="1" stroke-width="0.69739" stroke-linecap="butt" stroke-linejoin="miter" stroke="rgb(29.998779%, 29.998779%, 29.998779%)" stroke-opacity="1" stroke-miterlimit="10" d="M 1.889709 -0.00167 C 1.65924 0.06083 0.635803 0.400674 -0.00091625 0.771767 L -0.00091625 -0.771201 C 0.635803 -0.400108 1.65924 -0.0602638 1.889709 -0.00167 Z M 1.889709 -0.00167 " transform="matrix(0, 1, 1, 0, 70.56417, 95.99701)"/>
<path fill="none" stroke-width="0.69739" stroke-linecap="butt" stroke-linejoin="miter" stroke="rgb(29.998779%, 29.998779%, 29.998779%)" stroke-opacity="1" stroke-miterlimit="10" d="M 43.556344 19.844406 L 43.556344 12.238937 " transform="matrix(1, 0, 0, -1, 83.971, 46.653)"/>
<path fill-rule="nonzero" fill="rgb(29.998779%, 29.998779%, 29.998779%)" fill-opacity="1" stroke-width="0.69739" stroke-linecap="butt" stroke-linejoin="miter" stroke="rgb(29.998779%, 29.998779%, 29.998779%)" stroke-opacity="1" stroke-miterlimit="10" d="M 1.890118 -0.00046625 C 1.659649 0.0620337 0.636211 0.401877 -0.0005075 0.772971 L -0.0005075 -0.769998 C 0.636211 -0.398904 1.659649 -0.05906 1.890118 -0.00046625 Z M 1.890118 -0.00046625 " transform="matrix(0, 1, 1, 0, 127.52781, 34.41457)"/>
<path fill="none" stroke-width="0.69739" stroke-linecap="butt" stroke-linejoin="miter" stroke="rgb(29.998779%, 29.998779%, 29.998779%)" stroke-opacity="1" stroke-miterlimit="10" d="M 43.556344 -8.796219 L 43.556344 -16.632156 " transform="matrix(1, 0, 0, -1, 83.971, 46.653)"/>
<path fill-rule="nonzero" fill="rgb(29.998779%, 29.998779%, 29.998779%)" fill-opacity="1" stroke-width="0.69739" stroke-linecap="butt" stroke-linejoin="miter" stroke="rgb(29.998779%, 29.998779%, 29.998779%)" stroke-opacity="1" stroke-miterlimit="10" d="M 1.891371 -0.00046625 C 1.656996 0.0620337 0.637465 0.401877 0.00074625 0.772971 L 0.00074625 -0.769998 C 0.637465 -0.398904 1.656996 -0.05906 1.891371 -0.00046625 Z M 1.891371 -0.00046625 " transform="matrix(0, 1, 1, 0, 127.52781, 63.28441)"/>
<path fill="none" stroke-width="0.69739" stroke-linecap="butt" stroke-linejoin="miter" stroke="rgb(29.998779%, 29.998779%, 29.998779%)" stroke-opacity="1" stroke-miterlimit="10" d="M 43.556344 -37.663406 L 43.556344 -49.343094 " transform="matrix(1, 0, 0, -1, 83.971, 46.653)"/>
<path fill-rule="nonzero" fill="rgb(29.998779%, 29.998779%, 29.998779%)" fill-opacity="1" stroke-width="0.69739" stroke-linecap="butt" stroke-linejoin="miter" stroke="rgb(29.998779%, 29.998779%, 29.998779%)" stroke-opacity="1" stroke-miterlimit="10" d="M 1.889709 -0.00046625 C 1.65924 0.0620337 0.635803 0.401877 -0.00091625 0.772971 L -0.00091625 -0.769998 C 0.635803 -0.398904 1.65924 -0.05906 1.889709 -0.00046625 Z M 1.889709 -0.00046625 " transform="matrix(0, 1, 1, 0, 127.52781, 95.99701)"/>
<path fill-rule="nonzero" fill="rgb(71.763611%, 91.764832%, 95.292664%)" fill-opacity="1" stroke-width="0.69739" stroke-linecap="butt" stroke-linejoin="miter" stroke="rgb(12.548828%, 72.155762%, 83.921814%)" stroke-opacity="1" stroke-miterlimit="10" d="M 28.286812 -82.06575 L -28.287406 -82.06575 C -30.486625 -82.06575 -32.271781 -83.847 -32.271781 -86.050125 L -32.271781 -101.171219 C -32.271781 -103.370438 -30.486625 -105.155594 -28.287406 -105.155594 L 28.286812 -105.155594 C 30.486031 -105.155594 32.271187 -103.370438 32.271187 -101.171219 L 32.271187 -86.050125 C 32.271187 -83.847 30.486031 -82.06575 28.286812 -82.06575 Z M 28.286812 -82.06575 " transform="matrix(1, 0, 0, -1, 83.971, 46.653)"/>
<g fill="rgb(0%, 0%, 0%)" fill-opacity="1">
<use xlink:href="#glyph-5-14" x="54.688" y="137.195"/>
<use xlink:href="#glyph-5-15" x="59.391156" y="137.195"/>
<use xlink:href="#glyph-5-1" x="64.094312" y="137.195"/>
<use xlink:href="#glyph-5-1" x="71.149445" y="137.195"/>
<use xlink:href="#glyph-5-9" x="78.204577" y="137.195"/>
<use xlink:href="#glyph-5-8" x="82.437497" y="137.195"/>
<use xlink:href="#glyph-5-16" x="85.737119" y="137.195"/>
</g>
<g fill="rgb(0%, 0%, 0%)" fill-opacity="1">
<use xlink:href="#glyph-5-17" x="93.026572" y="137.195"/>
<use xlink:href="#glyph-5-12" x="96.31902" y="137.195"/>
<use xlink:href="#glyph-5-18" x="100.55194" y="137.195"/>
</g>
<g fill="rgb(0%, 0%, 0%)" fill-opacity="1">
<use xlink:href="#glyph-5-0" x="104.788846" y="137.195"/>
<use xlink:href="#glyph-5-5" x="108.55153" y="137.195"/>
</g>
<g fill="rgb(0%, 0%, 0%)" fill-opacity="1">
<use xlink:href="#glyph-0-1" x="74.715" y="146.659"/>
</g>
<g fill="rgb(0%, 0%, 0%)" fill-opacity="1">
<use xlink:href="#glyph-1-2" x="80.801" y="147.655"/>
</g>
<g fill="rgb(0%, 0%, 0%)" fill-opacity="1">
<use xlink:href="#glyph-1-3" x="85.032543" y="147.655"/>
<use xlink:href="#glyph-1-2" x="88.685454" y="147.655"/>
</g>
<path fill-rule="nonzero" fill="rgb(94.900513%, 84.313965%, 72.155762%)" fill-opacity="1" stroke-width="0.69739" stroke-linecap="butt" stroke-linejoin="miter" stroke="rgb(83.529663%, 54.116821%, 19.607544%)" stroke-opacity="1" stroke-miterlimit="10" d="M 52.739937 -117.19075 L -52.740531 -117.19075 C -54.93975 -117.19075 -56.724906 -118.975906 -56.724906 -121.175125 L -56.724906 -130.214188 C -56.724906 -132.413406 -54.93975 -134.198563 -52.740531 -134.198563 L 52.739937 -134.198563 C 54.939156 -134.198563 56.724312 -132.413406 56.724312 -130.214188 L 56.724312 -121.175125 C 56.724312 -118.975906 54.939156 -117.19075 52.739937 -117.19075 Z M 52.739937 -117.19075 " transform="matrix(1, 0, 0, -1, 83.971, 46.653)"/>
<g fill="rgb(0%, 0%, 0%)" fill-opacity="1">
<use xlink:href="#glyph-5-19" x="30.235" y="174.256"/>
<use xlink:href="#glyph-5-12" x="36.576012" y="174.256"/>
<use xlink:href="#glyph-5-8" x="40.808932" y="174.256"/>
<use xlink:href="#glyph-5-1" x="44.108553" y="174.256"/>
<use xlink:href="#glyph-5-9" x="51.163686" y="174.256"/>
<use xlink:href="#glyph-5-20" x="55.396606" y="174.256"/>
<use xlink:href="#glyph-5-4" x="57.748582" y="174.256"/>
<use xlink:href="#glyph-5-21" x="60.100559" y="174.256"/>
<use xlink:href="#glyph-5-4" x="63.863243" y="174.256"/>
<use xlink:href="#glyph-5-5" x="66.215219" y="174.256"/>
<use xlink:href="#glyph-5-6" x="70.918375" y="174.256"/>
</g>
<g fill="rgb(0%, 0%, 0%)" fill-opacity="1">
<use xlink:href="#glyph-5-22" x="77.972711" y="174.256"/>
<use xlink:href="#glyph-5-12" x="82.675867" y="174.256"/>
</g>
<g fill="rgb(0%, 0%, 0%)" fill-opacity="1">
<use xlink:href="#glyph-5-23" x="86.677654" y="174.256"/>
</g>
<g fill="rgb(0%, 0%, 0%)" fill-opacity="1">
<use xlink:href="#glyph-2-2" x="95.61373" y="174.256"/>
</g>
<g fill="rgb(0%, 0%, 0%)" fill-opacity="1">
<use xlink:href="#glyph-6-1" x="99.681669" y="174.256"/>
<use xlink:href="#glyph-6-3" x="102.974915" y="174.256"/>
</g>
<g fill="rgb(0%, 0%, 0%)" fill-opacity="1">
<use xlink:href="#glyph-0-2" x="111.198464" y="174.256"/>
</g>
<g fill="rgb(0%, 0%, 0%)" fill-opacity="1">
<use xlink:href="#glyph-0-1" x="115.90162" y="174.256"/>
</g>
<g fill="rgb(0%, 0%, 0%)" fill-opacity="1">
<use xlink:href="#glyph-1-2" x="121.987" y="175.252"/>
</g>
<g fill="rgb(0%, 0%, 0%)" fill-opacity="1">
<use xlink:href="#glyph-1-3" x="126.218543" y="175.252"/>
<use xlink:href="#glyph-1-2" x="129.871454" y="175.252"/>
</g>
<g fill="rgb(0%, 0%, 0%)" fill-opacity="1">
<use xlink:href="#glyph-6-2" x="134.413" y="174.256"/>
</g>
<path fill="none" stroke-width="0.69739" stroke-linecap="butt" stroke-linejoin="miter" stroke="rgb(29.998779%, 29.998779%, 29.998779%)" stroke-opacity="1" stroke-miterlimit="10" d="M 0.00165625 -70.37825 L 0.00165625 -78.389969 " transform="matrix(1, 0, 0, -1, 83.971, 46.653)"/>
<path fill-rule="nonzero" fill="rgb(29.998779%, 29.998779%, 29.998779%)" fill-opacity="1" stroke-width="0.69739" stroke-linecap="butt" stroke-linejoin="miter" stroke="rgb(29.998779%, 29.998779%, 29.998779%)" stroke-opacity="1" stroke-miterlimit="10" d="M 1.888538 0.00165625 C 1.658069 0.06025 0.638538 0.400094 0.00181875 0.771187 L 0.00181875 -0.771781 C 0.638538 -0.400688 1.658069 -0.0608438 1.888538 0.00165625 Z M 1.888538 0.00165625 " transform="matrix(0, 1, 1, 0, 83.971, 125.04115)"/>
<path fill="none" stroke-width="0.69739" stroke-linecap="butt" stroke-linejoin="miter" stroke="rgb(29.998779%, 29.998779%, 29.998779%)" stroke-opacity="1" stroke-miterlimit="10" d="M 0.00165625 -105.50325 L 0.00165625 -113.514969 " transform="matrix(1, 0, 0, -1, 83.971, 46.653)"/>
<path fill-rule="nonzero" fill="rgb(29.998779%, 29.998779%, 29.998779%)" fill-opacity="1" stroke-width="0.69739" stroke-linecap="butt" stroke-linejoin="miter" stroke="rgb(29.998779%, 29.998779%, 29.998779%)" stroke-opacity="1" stroke-miterlimit="10" d="M 1.891224 0.00165625 C 1.656849 0.06025 0.637317 0.400094 0.00059875 0.771187 L 0.00059875 -0.771781 C 0.637317 -0.400688 1.656849 -0.0608438 1.891224 0.00165625 Z M 1.891224 0.00165625 " transform="matrix(0, 1, 1, 0, 83.971, 160.16737)"/>
<path fill-rule="nonzero" fill="rgb(71.763611%, 91.764832%, 95.292664%)" fill-opacity="1" d="M 129.003906 192.886719 L 38.9375 192.886719 C 36.738281 192.886719 34.953125 194.671875 34.953125 196.871094 L 34.953125 212.625 C 34.953125 214.824219 36.738281 216.609375 38.9375 216.609375 L 129.003906 216.609375 C 131.207031 216.609375 132.988281 214.824219 132.988281 212.625 L 132.988281 196.871094 C 132.988281 194.671875 131.207031 192.886719 129.003906 192.886719 Z M 129.003906 192.886719 "/>
<g clip-path="url(#clip-2)">
<path fill="none" stroke-width="0.69739" stroke-linecap="butt" stroke-linejoin="miter" stroke="rgb(12.548828%, 72.155762%, 83.921814%)" stroke-opacity="1" stroke-miterlimit="10" d="M 45.032906 -146.233719 L -45.0335 -146.233719 C -47.232719 -146.233719 -49.017875 -148.018875 -49.017875 -150.218094 L -49.017875 -165.972 C -49.017875 -168.171219 -47.232719 -169.956375 -45.0335 -169.956375 L 45.032906 -169.956375 C 47.236031 -169.956375 49.017281 -168.171219 49.017281 -165.972 L 49.017281 -150.218094 C 49.017281 -148.018875 47.236031 -146.233719 45.032906 -146.233719 Z M 45.032906 -146.233719 " transform="matrix(1, 0, 0, -1, 83.971, 46.653)"/>
</g>
<g fill="rgb(0%, 0%, 0%)" fill-opacity="1">
<use xlink:href="#glyph-5-24" x="37.941" y="201.364"/>
<use xlink:href="#glyph-5-16" x="44.282012" y="201.364"/>
<use xlink:href="#glyph-5-25" x="48.75005" y="201.364"/>
</g>
<g fill="rgb(0%, 0%, 0%)" fill-opacity="1">
<use xlink:href="#glyph-5-0" x="53.692309" y="201.364"/>
<use xlink:href="#glyph-5-8" x="57.454993" y="201.364"/>
<use xlink:href="#glyph-5-25" x="60.754614" y="201.364"/>
<use xlink:href="#glyph-5-9" x="65.45777" y="201.364"/>
<use xlink:href="#glyph-5-8" x="69.69069" y="201.364"/>
<use xlink:href="#glyph-5-9" x="72.990312" y="201.364"/>
<use xlink:href="#glyph-5-1" x="77.223232" y="201.364"/>
<use xlink:href="#glyph-5-0" x="84.278364" y="201.364"/>
<use xlink:href="#glyph-5-17" x="88.041049" y="201.364"/>
<use xlink:href="#glyph-5-0" x="91.333497" y="201.364"/>
<use xlink:href="#glyph-5-8" x="95.096181" y="201.364"/>
</g>
<g fill="rgb(0%, 0%, 0%)" fill-opacity="1">
<use xlink:href="#glyph-5-10" x="101.217218" y="201.364"/>
<use xlink:href="#glyph-5-9" x="104.55669" y="201.364"/>
<use xlink:href="#glyph-5-1" x="108.78961" y="201.364"/>
<use xlink:href="#glyph-5-25" x="115.844742" y="201.364"/>
<use xlink:href="#glyph-5-20" x="120.547898" y="201.364"/>
<use xlink:href="#glyph-5-0" x="122.899875" y="201.364"/>
<use xlink:href="#glyph-5-10" x="126.662559" y="201.364"/>
</g>
<g fill="rgb(0%, 0%, 0%)" fill-opacity="1">
<use xlink:href="#glyph-6-3" x="48.01" y="210.829"/>
</g>
<g fill="rgb(0%, 0%, 0%)" fill-opacity="1">
<use xlink:href="#glyph-0-3" x="56.233549" y="210.829"/>
</g>
<g fill="rgb(0%, 0%, 0%)" fill-opacity="1">
<use xlink:href="#glyph-2-3" x="65.171219" y="210.829"/>
</g>
<g fill="rgb(0%, 0%, 0%)" fill-opacity="1">
<use xlink:href="#glyph-7-0" x="70.847" y="204.413"/>
</g>
<g fill="rgb(0%, 0%, 0%)" fill-opacity="1">
<use xlink:href="#glyph-6-3" x="74.729" y="210.829"/>
</g>
<g fill="rgb(0%, 0%, 0%)" fill-opacity="1">
<use xlink:href="#glyph-0-2" x="82.952549" y="210.829"/>
</g>
<g fill="rgb(0%, 0%, 0%)" fill-opacity="1">
<use xlink:href="#glyph-0-4" x="87.655705" y="210.829"/>
</g>
<g fill="rgb(0%, 0%, 0%)" fill-opacity="1">
<use xlink:href="#glyph-2-4" x="91.890219" y="210.829"/>
</g>
<g fill="rgb(0%, 0%, 0%)" fill-opacity="1">
<use xlink:href="#glyph-3-1" x="96.25" y="212.044"/>
</g>
<g fill="rgb(0%, 0%, 0%)" fill-opacity="1">
<use xlink:href="#glyph-0-5" x="99.412" y="210.829"/>
</g>
<g fill="rgb(0%, 0%, 0%)" fill-opacity="1">
<use xlink:href="#glyph-3-0" x="103.646" y="208.016"/>
</g>
<g fill="rgb(0%, 0%, 0%)" fill-opacity="1">
<use xlink:href="#glyph-3-1" x="103.646" y="213.411"/>
</g>
<g fill="rgb(0%, 0%, 0%)" fill-opacity="1">
<use xlink:href="#glyph-1-4" x="106.309619" y="213.411"/>
<use xlink:href="#glyph-1-0" x="111.89987" y="213.411"/>
</g>
<g fill="rgb(0%, 0%, 0%)" fill-opacity="1">
<use xlink:href="#glyph-7-1" x="116.051" y="204.413"/>
</g>
<path fill="none" stroke-width="0.69739" stroke-linecap="butt" stroke-linejoin="miter" stroke="rgb(29.998779%, 29.998779%, 29.998779%)" stroke-opacity="1" stroke-miterlimit="10" d="M 0.00165625 -134.546219 L 0.00165625 -142.557938 " transform="matrix(1, 0, 0, -1, 83.971, 46.653)"/>
<path fill-rule="nonzero" fill="rgb(29.998779%, 29.998779%, 29.998779%)" fill-opacity="1" stroke-width="0.69739" stroke-linecap="butt" stroke-linejoin="miter" stroke="rgb(29.998779%, 29.998779%, 29.998779%)" stroke-opacity="1" stroke-miterlimit="10" d="M 1.890032 0.00165625 C 1.659564 0.06025 0.636126 0.400094 -0.0005925 0.771187 L -0.0005925 -0.771781 C 0.636126 -0.400688 1.659564 -0.0608438 1.890032 0.00165625 Z M 1.890032 0.00165625 " transform="matrix(0, 1, 1, 0, 83.971, 189.21153)"/>
</svg>
